<svg height="581pt" viewBox="-86 -18 581 581.33236" width="581pt" xmlns="http://www.w3.org/2000/svg"><path d="m46.6875 170.320312c-4.699219 0-8.511719-3.8125-8.511719-8.519531v-153.277343c0-3.902344 2.652344-7.304688 6.433594-8.257813 3.78125-.964844 7.726563.777344 9.578125 4.222656l34.109375 63.347657c2.230469 4.132812.683594 9.296874-3.460937 11.539062-4.136719 2.226562-9.300782.679688-11.53125-3.46875l-18.097657-33.601562v119.5c0 4.703124-3.8125 8.515624-8.519531 8.515624zm0 0"/><path d="m353.25 170.320312c-4.703125 0-8.515625-3.8125-8.515625-8.519531v-119.496093l-17.039063 31.632812c-2.226562 4.148438-7.398437 5.695312-11.535156 3.464844-4.140625-2.238282-5.6875-7.402344-3.460937-11.535156l33.050781-61.378907c1.851562-3.441406 5.804688-5.1875 9.582031-4.222656 3.78125.957031 6.429688 4.359375 6.429688 8.257813v153.28125c.007812 4.703124-3.808594 8.515624-8.511719 8.515624zm0 0"/><path d="m46.6875 425.785156s-.003906 0-.007812 0c-4.707032-.007812-8.511719-3.828125-8.503907-8.535156l.4375-260.507812c.011719-4.695313 3.820313-8.496094 8.519531-8.496094h.007813c4.707031.007812 8.515625 3.824218 8.503906 8.53125l-.4375 260.503906c-.011719 4.703125-3.820312 8.503906-8.519531 8.503906zm0 0"/><path d="m353.25 425.785156c-4.695312 0-8.507812-3.800781-8.515625-8.503906l-.441406-260.503906c-.007813-4.707032 3.796875-8.523438 8.503906-8.53125h.015625c4.695312 0 8.503906 3.800781 8.511719 8.496094l.445312 260.511718c.003907 4.707032-3.796875 8.523438-8.503906 8.53125-.003906 0-.011719 0-.015625 0zm0 0"/><path d="m162.195312 425.785156h-26.171874c-4.703126 0-8.511719-3.808594-8.511719-8.515625s3.808593-8.519531 8.511719-8.519531h26.171874c4.703126 0 8.515626 3.8125 8.515626 8.519531s-3.8125 8.515625-8.515626 8.515625zm0 0"/><path d="m395.828125 545h-391.714844c-4.703125 0-8.511719-3.804688-8.511719-8.511719v-55.453125c0-26 16.097657-50.105468 42.015626-62.910156 4.203124-2.09375 9.320312-.359375 11.40625 3.855469 2.085937 4.214843.351562 9.320312-3.863282 11.410156-20.066406 9.921875-32.53125 28.175781-32.53125 47.644531v46.933594h374.679688v-54.238281c0-26.4375-25.726563-47.945313-57.355469-47.945313h-92.878906c-4.703125 0-8.519531-3.808594-8.519531-8.515625s3.816406-8.519531 8.519531-8.519531h92.878906c41.019531 0 74.390625 29.148438 74.390625 64.980469v62.757812c0 4.707031-3.8125 8.511719-8.515625 8.511719zm0 0"/><path d="m176.535156 485.390625-70.234375 51.097656h186.125l-73.746093-51.097656zm0 0"/><path d="m292.425781 545h-186.125c-3.6875 0-6.957031-2.378906-8.101562-5.878906-1.136719-3.507813.109375-7.351563 3.085937-9.523438l70.242188-51.089844c1.457031-1.058593 3.210937-1.632812 5.007812-1.632812h42.144532c1.726562 0 3.425781.53125 4.847656 1.511719l73.746094 51.09375c3.058593 2.117187 4.386718 5.988281 3.28125 9.542969-1.113282 3.558593-4.40625 5.976562-8.128907 5.976562zm-159.945312-17.03125h132.703125l-49.164063-34.058594h-36.710937zm0 0"/><path d="m353.25 255.472656h-23.105469c-4.703125 0-8.515625-3.8125-8.515625-8.515625 0-4.707031 3.8125-8.515625 8.515625-8.515625h14.589844v-68.121094c0-79.832031-64.9375-144.769531-144.761719-144.769531-79.828125 0-144.765625 64.9375-144.765625 144.769531v68.121094h14.15625c4.707031 0 8.515625 3.808594 8.515625 8.515625 0 4.703125-3.808594 8.515625-8.515625 8.515625h-22.675781c-4.699219 0-8.511719-3.8125-8.511719-8.515625v-76.636719c0-89.214843 72.582031-161.796874 161.796875-161.796874 89.210938 0 161.796875 72.582031 161.796875 161.796874v76.636719c0 4.703125-3.816406 8.515625-8.519531 8.515625zm0 0"/><path d="m111.714844 170.320312s18.628906 39.914063 55.882812 42.574219c0 0 10.648438-29.273437-55.882812-42.574219zm0 0"/><path d="m287.441406 170.320312s-18.628906 39.914063-55.878906 42.574219c0 0-10.648438-29.273437 55.878906-42.574219zm0 0"/><path d="m234.03125 451.328125c-4.703125 0-8.511719-3.804687-8.511719-8.511719v-55.039062c0-4.707032 3.808594-8.511719 8.511719-8.511719s8.519531 3.804687 8.519531 8.511719v55.039062c0 4.707032-3.816406 8.511719-8.519531 8.511719zm0 0"/><path d="m165.90625 451.328125c-4.699219 0-8.511719-3.804687-8.511719-8.511719v-55.039062c0-4.707032 3.8125-8.511719 8.511719-8.511719 4.703125 0 8.519531 3.804687 8.519531 8.511719v55.039062c0 4.707032-3.816406 8.511719-8.519531 8.511719zm0 0"/><path d="m199.972656 400.238281c-63.007812 0-136.25-70.675781-136.25-161.796875v.007813l-.007812-17.03125c0-2.554688 1.144531-4.96875 3.113281-6.59375 1.976563-1.613281 4.570313-2.234375 7.074219-1.761719l126.070312 25.214844 126.058594-25.214844c2.511719-.5 5.097656.148438 7.070312 1.761719 1.972657 1.625 3.121094 4.035156 3.121094 6.582031v17.035156c0 91.121094-73.246094 161.796875-136.25 161.796875zm-119.222656-168.441406.003906 6.636719v.007812c0 65.570313 53.179688 144.761719 119.21875 144.761719 66.039063 0 119.214844-79.191406 119.214844-144.761719v-6.644531l-117.542969 23.511719c-1.113281.210937-2.242187.210937-3.34375 0zm0 0"/><path d="m208.484375 298.050781h-17.03125c-9.402344 0-17.027344-7.628906-17.027344-17.03125 0-9.402343 7.625-17.03125 17.027344-17.03125h17.03125c9.410156 0 17.035156 7.628907 17.035156 17.03125 0 9.402344-7.625 17.03125-17.035156 17.03125zm0 0"/><path d="m234.03125 289.53125h-68.125c-4.699219 0-8.511719-3.804688-8.511719-8.511719s3.8125-8.515625 8.511719-8.515625h68.125c4.703125 0 8.519531 3.808594 8.519531 8.515625s-3.816406 8.511719-8.519531 8.511719zm0 0"/><path d="m46.6875 519.453125c-4.699219 0-8.511719-3.808594-8.511719-8.511719v-119.21875c0-4.707031 3.8125-8.519531 8.511719-8.519531 4.707031 0 8.519531 3.8125 8.519531 8.519531v110.226563c38.265625-4.25 68.125-36.785157 68.125-76.164063v-34.0625c0-4.707031 3.8125-8.519531 8.515625-8.519531s8.511719 3.8125 8.511719 8.519531v34.0625c0 51.648438-42.015625 93.667969-93.671875 93.667969zm0 0"/></svg>