<?xml version="1.0" encoding="utf-8"?>
<!-- Generator: Adobe Illustrator 16.0.0, SVG Export Plug-In . SVG Version: 6.00 Build 0)  -->
<!DOCTYPE svg PUBLIC "-//W3C//DTD SVG 1.1//EN" "http://www.w3.org/Graphics/SVG/1.1/DTD/svg11.dtd">
<svg version="1.1" id="Capa_1" xmlns="http://www.w3.org/2000/svg" xmlns:xlink="http://www.w3.org/1999/xlink" x="0px" y="0px"
	 width="600px" height="600px" viewBox="0 0 600 600" enable-background="new 0 0 600 600" xml:space="preserve">
<g>
	<path fill-rule="evenodd" clip-rule="evenodd" fill="#364691" d="M4.695,369.438h6.381c7.048,0,12.962,1.906,12.962,7.771
		c0,2.321-1.184,4.298-3.811,5.598c4.632,0.839,7.36,3.926,7.36,7.353c0,5.716-6.228,8.004-13.891,8.004H4.695V369.438
		L4.695,369.438z M9.016,395.189h4.32c4.838,0,9.931-0.876,9.931-5.253c0-4.458-5.766-5.108-10.496-5.108H9.016V395.189
		L9.016,395.189z M9.016,382.083h1.65c4.881,0,9.052-0.416,9.052-4.874c0-4.348-3.706-4.8-9.003-4.8H9.016V382.083L9.016,382.083z"
		/>
	<path fill-rule="evenodd" clip-rule="evenodd" fill="#364691" d="M33.802,389.854c0.057,3.317,3.244,5.982,7.926,5.982
		c3.499,0,5.76-1.562,7.354-3.692l3.5,1.483c-2.317,3.198-6.227,5.029-11.165,5.029c-7.197,0-11.828-4.076-11.828-9.22
		c0-5.292,4.165-9.678,11.729-9.678c7.764,0,11.879,4.765,11.469,10.095H33.802L33.802,389.854z M48.466,387.262
		c-0.566-2.59-3.501-4.682-7.099-4.682c-3.55,0-6.842,2.092-7.359,4.682H48.466L48.466,387.262z"/>
	<polygon fill-rule="evenodd" clip-rule="evenodd" fill="#364691" points="52.263,380.253 57.044,380.253 65.587,393.099 
		73.402,380.253 78.083,380.253 60.231,408.221 55.556,408.221 63.37,396.483 52.263,380.253 	"/>
	<path fill-rule="evenodd" clip-rule="evenodd" fill="#364691" d="M77.56,389.248c0-5.259,5.61-9.489,12.708-9.489
		c7.098,0,12.702,4.23,12.702,9.489c0,5.256-5.653,9.408-12.702,9.408C83.22,398.656,77.56,394.504,77.56,389.248L77.56,389.248z
		 M81.675,389.205c0,3.66,3.501,6.631,8.593,6.631c5.093,0,8.586-2.971,8.586-6.631c0-3.615-3.493-6.625-8.586-6.625
		C85.176,382.58,81.675,385.59,81.675,389.205L81.675,389.205z"/>
	<path fill-rule="evenodd" clip-rule="evenodd" fill="#364691" d="M110.571,382.424h0.107c1.694-1.712,3.91-2.665,6.893-2.665
		c6.685,0,8.23,3.581,8.23,7.773v10.631h-4.116v-10.098c0-2.894-0.312-5.485-5.091-5.485c-5.66,0-6.022,3.886-6.022,7.087v8.496
		h-4.114v-17.91h4.114V382.424L110.571,382.424z"/>
	<path fill-rule="evenodd" clip-rule="evenodd" fill="#364691" d="M149.405,395.687h-0.106c-2.005,1.943-5.042,2.97-8.331,2.97
		c-7.104,0-11.573-4.458-11.573-9.408c0-5.104,4.369-9.489,11.625-9.489c3.237,0,6.324,1.143,8.28,3.048h0.106v-16.077h4.115v31.434
		h-4.115V395.687L149.405,395.687z M133.608,389.021c0,3.505,2.779,6.815,7.921,6.815c5.298,0,8.081-3.162,8.081-6.78
		c0-3.577-3.039-6.476-8.132-6.476C136.698,382.58,133.608,385.665,133.608,389.021L133.608,389.021z"/>
	<path fill-rule="evenodd" clip-rule="evenodd" fill="#364691" d="M194.707,398.163h-4.116v-2.477h-0.1
		c-2.111,1.981-4.937,2.97-8.337,2.97c-7.096,0-11.576-4.458-11.576-9.408c0-5.104,4.378-9.489,11.632-9.489
		c3.287,0,6.277,1.143,8.28,3.048h0.1v-2.554h4.116V398.163L194.707,398.163z M174.802,389.021c0,3.505,2.776,6.815,7.919,6.815
		c5.297,0,8.075-3.162,8.075-6.78c0-3.577-3.032-6.476-8.126-6.476C177.891,382.58,174.802,385.665,174.802,389.021L174.802,389.021
		z"/>
	<path fill-rule="evenodd" clip-rule="evenodd" fill="#364691" d="M204.271,382.424h0.107c1.691-1.712,3.909-2.665,6.892-2.665
		c6.687,0,8.23,3.581,8.23,7.773v10.631h-4.116v-10.098c0-2.894-0.312-5.485-5.093-5.485c-5.658,0-6.021,3.886-6.021,7.087v8.496
		h-4.116v-17.91h4.116V382.424L204.271,382.424z"/>
	<polygon fill-rule="evenodd" clip-rule="evenodd" fill="#364691" points="221.138,380.253 225.919,380.253 234.46,393.099 
		242.274,380.253 246.956,380.253 229.106,408.221 224.432,408.221 232.244,396.483 221.138,380.253 	"/>
	<path fill-rule="evenodd" clip-rule="evenodd" fill="#364691" d="M272.043,384.405c-0.566-0.954-1.799-1.825-3.289-1.825
		c-1.442,0-2.988,0.837-2.988,1.98c0,1.639,2.776,2.25,5.61,3.127c2.826,0.872,5.604,2.128,5.604,5.145
		c0,3.384-3.699,5.824-8.177,5.824c-4.064,0-7.253-1.71-8.541-4.531l3.654-1.145c1.027,1.679,2.21,2.855,4.938,2.855
		c2.21,0,3.91-1.104,3.91-2.737c0-4.005-10.908-2.637-10.908-8.271c0-3.015,3.295-5.069,7.204-5.069
		c2.776,0,5.348,1.446,6.432,3.314L272.043,384.405L272.043,384.405z"/>
	<polygon fill-rule="evenodd" clip-rule="evenodd" fill="#364691" points="284.95,398.163 280.842,398.163 280.842,383.073 
		278.32,383.073 278.32,380.253 280.842,380.253 280.842,373.815 284.95,373.815 284.95,380.253 289.271,380.253 289.271,383.073 
		284.95,383.073 284.95,398.163 	"/>
	<path fill-rule="evenodd" clip-rule="evenodd" fill="#364691" d="M288.655,389.248c0-5.259,5.611-9.489,12.708-9.489
		c7.097,0,12.706,4.23,12.706,9.489c0,5.256-5.658,9.408-12.706,9.408C294.316,398.656,288.655,394.504,288.655,389.248
		L288.655,389.248z M292.77,389.205c0,3.66,3.499,6.631,8.593,6.631c5.093,0,8.59-2.971,8.59-6.631c0-3.615-3.497-6.625-8.59-6.625
		C296.269,382.58,292.77,385.59,292.77,389.205L292.77,389.205z"/>
	<path fill-rule="evenodd" clip-rule="evenodd" fill="#364691" d="M321.46,382.202h0.105c1.441-1.415,2.671-2.443,5.349-2.443
		c1.391,0,2.523,0.343,3.706,0.84l-1.955,2.779c-0.821-0.42-1.388-0.798-2.473-0.798c-4.528,0-4.732,4.304-4.732,6.625v8.958h-4.114
		v-17.91h4.114V382.202L321.46,382.202z"/>
	<path fill-rule="evenodd" clip-rule="evenodd" fill="#364691" d="M334.678,389.854c0.051,3.317,3.245,5.982,7.927,5.982
		c3.495,0,5.76-1.562,7.354-3.692l3.501,1.483c-2.315,3.198-6.227,5.029-11.163,5.029c-7.206,0-11.831-4.076-11.831-9.22
		c0-5.292,4.165-9.678,11.729-9.678c7.765,0,11.879,4.765,11.47,10.095H334.678L334.678,389.854z M349.34,387.262
		c-0.566-2.59-3.495-4.682-7.095-4.682c-3.55,0-6.844,2.092-7.359,4.682H349.34L349.34,387.262z"/>
	<path fill-rule="evenodd" clip-rule="evenodd" fill="#364691" d="M368.668,389.248c0-5.259,5.604-9.489,12.702-9.489
		c7.098,0,12.706,4.23,12.706,9.489c0,5.256-5.658,9.408-12.706,9.408C374.321,398.656,368.668,394.504,368.668,389.248
		L368.668,389.248z M372.782,389.205c0,3.66,3.492,6.631,8.588,6.631c5.093,0,8.591-2.971,8.591-6.631
		c0-3.615-3.498-6.625-8.591-6.625C376.274,382.58,372.782,385.59,372.782,389.205L372.782,389.205z"/>
	<path fill-rule="evenodd" clip-rule="evenodd" fill="#364691" d="M402.04,398.163h-4.117v-15.09h-2.264v-2.82h2.264v-7.122
		c0-1.486,0-3.352,1.079-4.646c1.338-1.601,3.756-2.248,6.229-2.248c0.975,0,1.951,0.152,2.932,0.381v3.081
		c-0.928-0.225-1.749-0.416-2.777-0.416c-3.345,0-3.345,1.756-3.345,4.918v6.053h6.122v2.82h-6.122V398.163L402.04,398.163z"/>
	<path fill-rule="evenodd" clip-rule="evenodd" fill="#364691" d="M423.938,380.253h4.115v17.908h-4.115V380.253L423.938,380.253z
		 M428.933,373.51c0,1.221-1.338,2.172-2.932,2.172c-1.597,0-2.933-0.951-2.933-2.172c0-1.178,1.336-2.166,2.933-2.166
		C427.595,371.344,428.933,372.332,428.933,373.51L428.933,373.51z"/>
	<polygon fill-rule="evenodd" clip-rule="evenodd" fill="#364691" points="438.809,398.163 434.693,398.163 434.693,383.073 
		432.168,383.073 432.168,380.253 434.693,380.253 434.693,373.815 438.809,373.815 438.809,380.253 443.127,380.253 
		443.127,383.073 438.809,383.073 438.809,398.163 	"/>
	<path fill-rule="evenodd" clip-rule="evenodd" fill="#364691" d="M454.443,384.405c-0.569-0.954-1.8-1.825-3.296-1.825
		c-1.437,0-2.981,0.837-2.981,1.98c0,1.639,2.776,2.25,5.608,3.127c2.829,0.872,5.605,2.128,5.605,5.145
		c0,3.384-3.699,5.824-8.174,5.824c-4.067,0-7.256-1.71-8.546-4.531l3.656-1.145c1.026,1.679,2.212,2.855,4.937,2.855
		c2.212,0,3.909-1.104,3.909-2.737c0-4.005-10.906-2.637-10.906-8.271c0-3.015,3.293-5.069,7.203-5.069
		c2.777,0,5.348,1.446,6.432,3.314L454.443,384.405L454.443,384.405z"/>
	<polygon fill-rule="evenodd" clip-rule="evenodd" fill="#364691" points="480.616,386.884 489.415,380.253 494.917,380.253 
		484.574,387.872 496.866,398.163 491.419,398.163 481.692,390.008 480.616,390.803 480.616,398.163 476.499,398.163 
		476.499,366.729 480.616,366.729 480.616,386.884 	"/>
	<path fill-rule="evenodd" clip-rule="evenodd" fill="#364691" d="M499.494,380.253h4.114v17.908h-4.114V380.253L499.494,380.253z
		 M504.48,373.51c0,1.221-1.338,2.172-2.933,2.172c-1.594,0-2.932-0.951-2.932-2.172c0-1.178,1.338-2.166,2.932-2.166
		C503.143,371.344,504.48,372.332,504.48,373.51L504.48,373.51z"/>
	<path fill-rule="evenodd" clip-rule="evenodd" fill="#364691" d="M514.148,382.424h0.105c1.696-1.712,3.906-2.665,6.896-2.665
		c6.685,0,8.225,3.581,8.225,7.773v10.631h-4.108v-10.098c0-2.894-0.313-5.485-5.094-5.485c-5.66,0-6.023,3.886-6.023,7.087v8.496
		h-4.111v-17.91h4.111V382.424L514.148,382.424z"/>
	<path fill-rule="evenodd" clip-rule="evenodd" fill="#364691" d="M552.979,395.687h-0.103c-2.009,1.943-5.039,2.97-8.336,2.97
		c-7.098,0-11.575-4.458-11.575-9.408c0-5.104,4.38-9.489,11.631-9.489c3.241,0,6.325,1.143,8.28,3.048h0.103v-16.077h4.115v31.434
		h-4.115V395.687L552.979,395.687z M537.188,389.021c0,3.505,2.777,6.815,7.922,6.815c5.296,0,8.074-3.162,8.074-6.78
		c0-3.577-3.033-6.476-8.126-6.476C540.27,382.58,537.188,385.665,537.188,389.021L537.188,389.021z"/>
	<path fill-rule="evenodd" clip-rule="evenodd" fill="#364691" d="M569.434,396.483c0,1.185-1.281,2.173-2.875,2.173
		c-1.604,0-2.884-0.988-2.884-2.173c0-1.141,1.28-2.091,2.884-2.091C568.152,394.393,569.434,395.343,569.434,396.483
		L569.434,396.483z"/>
	<path fill-rule="evenodd" clip-rule="evenodd" fill="#364691" d="M5.466,285.962h30.858c14.115,0,28.528,3.076,28.528,18.373
		c0,5.805-3.194,11.521-9.577,13.367v0.531c7.934,2.548,12.963,7.82,12.963,15.734c0,13.627-13.928,18.29-26.697,18.29H5.466
		V285.962L5.466,285.962z M32.451,311.459c3.874,0,8.226-0.349,8.226-4.925c0-4.92-4.938-4.57-8.805-4.57h-1.835v9.495H32.451
		L32.451,311.459z M30.036,336.432h2.993c4.354,0,10.641-0.086,10.641-5.54c0-5.537-6.767-5.447-11.025-5.447h-2.608V336.432
		L30.036,336.432z"/>
	<polygon fill-rule="evenodd" clip-rule="evenodd" fill="#364691" points="72.479,285.962 125.975,285.962 125.975,304.074 
		101.601,304.074 101.601,310.407 123.865,310.407 123.865,327.642 101.601,327.642 101.601,334.149 126.815,334.149 
		126.815,352.258 72.479,352.258 72.479,285.962 	"/>
	<path fill-rule="evenodd" clip-rule="evenodd" fill="#364691" d="M163.569,285.962l9.969,17.32h0.953
		c0.946-2.108,1.773-4.22,2.964-6.243l6.411-11.077h36.556l-30.623,37.716v28.579h-31.808v-28.579l-31.217-37.716H163.569
		L163.569,285.962z"/>
	<path fill-rule="evenodd" clip-rule="evenodd" fill="#364691" d="M312.432,319.283c0,21.284-23.839,34.027-53.163,34.027
		c-29.321,0-53.161-12.743-53.161-34.027c0-20.838,23.971-34.38,53.161-34.38C288.463,284.903,312.432,298.445,312.432,319.283
		L312.432,319.283z M241.292,319.64c0,7.559,7.396,12.744,17.976,12.744c10.583,0,17.972-5.186,17.972-12.744
		c0-7.035-6.879-12.927-17.972-12.927C248.178,306.713,241.292,312.604,241.292,319.64L241.292,319.64z"/>
	<path fill-rule="evenodd" clip-rule="evenodd" fill="#364691" d="M425.788,285.962h55.189c50.047,0,88.426,9.754,88.426,34.114
		c0,19.692-31.258,32.182-74.978,32.182h-68.638V285.962L425.788,285.962z M479.988,332.384h3.361c18,0,31.846-3.693,31.846-12.394
		c0-9.322-12.066-13.277-31.846-13.277h-3.361V332.384L479.988,332.384z"/>
	<path fill-rule="evenodd" clip-rule="evenodd" fill="#364691" d="M557.648,286.684c0-4.912,3.915-8.828,8.873-8.828
		c4.961,0,8.877,3.916,8.877,8.828c0,4.914-3.916,8.829-8.877,8.829C561.563,295.513,557.648,291.598,557.648,286.684
		L557.648,286.684z M574.043,286.684c0-4.166-3.471-7.47-7.521-7.47c-4.056,0-7.516,3.304-7.516,7.47
		c0,4.167,3.46,7.471,7.516,7.471C570.572,294.154,574.043,290.851,574.043,286.684L574.043,286.684z M570.735,291.461h-1.633
		l-2.894-4.458h-1.632v4.458h-1.358v-9.67h4.211c1.74,0,3.442,0.479,3.442,2.559c0,1.905-1.34,2.609-3.057,2.653L570.735,291.461
		L570.735,291.461z M566.209,285.645c1.202,0,3.306,0.224,3.306-1.314c0-0.997-1.314-1.177-2.361-1.177h-2.576v2.491H566.209
		L566.209,285.645z"/>
	<path fill-rule="evenodd" clip-rule="evenodd" fill="#364691" d="M560.217,363.711c0-4.665,3.722-8.385,8.419-8.385
		c4.707,0,8.425,3.72,8.425,8.385c0,4.662-3.718,8.38-8.425,8.38C563.938,372.091,560.217,368.373,560.217,363.711L560.217,363.711z
		 M575.771,363.711c0-3.957-3.288-7.093-7.136-7.093c-3.842,0-7.127,3.136-7.127,7.093c0,3.953,3.285,7.092,7.127,7.092
		C572.483,370.803,575.771,367.664,575.771,363.711L575.771,363.711z M572.633,368.243h-1.541l-2.751-4.237h-1.553v4.237h-1.289
		v-9.172h3.998c1.654,0,3.267,0.447,3.267,2.43c0,1.8-1.269,2.464-2.901,2.505L572.633,368.243L572.633,368.243z M568.341,362.722
		c1.135,0,3.135,0.217,3.135-1.247c0-0.947-1.246-1.113-2.235-1.113h-2.452v2.36H568.341L568.341,362.722z"/>
	<polygon fill-rule="evenodd" clip-rule="evenodd" fill="#364691" points="352.609,286.005 316.772,286.005 316.772,352.303 
		352.477,352.303 352.477,318.577 384.093,352.303 419.799,352.303 419.799,286.005 384.093,286.005 384.093,320.369 
		352.609,286.005 	"/>
	<path fill-rule="evenodd" clip-rule="evenodd" fill="#364691" d="M5.291,179.264h10.71c16.538,0,32.134,4.308,32.134,24.102
		c0,6.398-3.492,13.852-9.428,16.647v0.232c10.362,1.867,17.578,11.99,17.578,22.239c0,17.583-15.018,24.569-30.502,24.569H5.291
		V179.264L5.291,179.264z M16.236,218.151h2.79c10.368,0,18.867-2.098,18.867-14.675c0-12.342-8.388-14.431-18.629-14.431h-3.028
		V218.151L16.236,218.151z M16.236,257.271h8.381c10.131,0,20.728-3.023,20.728-15.483c0-12.339-12.576-14.906-22.357-14.906h-6.751
		V257.271L16.236,257.271z"/>
	<polygon fill-rule="evenodd" clip-rule="evenodd" fill="#364691" points="62.681,179.264 109.836,179.264 109.836,189.273 
		73.625,189.273 73.625,213.843 108.785,213.843 108.785,223.855 73.625,223.855 73.625,257.042 109.836,257.042 109.836,267.053 
		62.681,267.053 62.681,179.264 	"/>
	<path fill-rule="evenodd" clip-rule="evenodd" fill="#364691" d="M120.078,179.264h18.163c26.898,0,49.256,14.203,49.256,43.427
		c0,29.922-21.893,44.362-49.605,44.362h-17.814V179.264L120.078,179.264z M131.024,257.042h3.842
		c22.354,0,41.685-8.387,41.685-33.883c0-25.616-19.331-33.886-41.685-33.886h-3.842V257.042L131.024,257.042z"/>
	<path fill-rule="evenodd" clip-rule="evenodd" fill="#364691" d="M218.298,179.264h10.714c16.532,0,32.135,4.308,32.135,24.102
		c0,6.398-3.494,13.852-9.432,16.647v0.232c10.365,1.867,17.582,11.99,17.582,22.239c0,17.583-15.019,24.569-30.503,24.569h-20.496
		V179.264L218.298,179.264z M229.245,218.151h2.796c10.359,0,18.857-2.098,18.857-14.675c0-12.342-8.38-14.431-18.629-14.431h-3.025
		V218.151L229.245,218.151z M229.245,257.271h8.387c10.13,0,20.719-3.023,20.719-15.483c0-12.339-12.567-14.906-22.352-14.906
		h-6.753V257.271L229.245,257.271z"/>
	<path fill-rule="evenodd" clip-rule="evenodd" fill="#364691" d="M290.48,245.043l-10.013,22.01h-11.762l41.916-91.52l41.915,91.52
		h-11.761l-10.013-22.01H290.48L290.48,245.043z M310.621,199.524l-15.602,35.507h31.206L310.621,199.524L310.621,199.524z"/>
	<polygon fill-rule="evenodd" clip-rule="evenodd" fill="#364691" points="371.87,267.053 360.922,267.053 360.922,189.273 
		340.082,189.273 340.082,179.264 392.709,179.264 392.709,189.273 371.87,189.273 371.87,267.053 	"/>
	<polygon fill-rule="evenodd" clip-rule="evenodd" fill="#364691" points="451.364,214.659 451.364,179.264 462.312,179.264 
		462.312,267.053 451.364,267.053 451.364,224.901 409.567,224.901 409.567,267.053 398.624,267.053 398.624,179.264 
		409.567,179.264 409.567,214.659 451.364,214.659 	"/>
	<path fill-rule="evenodd" clip-rule="evenodd" fill="#364691" d="M544.117,255.173c-6.637,7.801-15.952,13.742-26.311,13.742
		c-14.669,0-26.9-10.709-26.9-25.848c0-11.182,6.987-17.233,15.374-23.285l5.474-3.958c-5.006-5.245-9.665-11.763-9.665-19.216
		c0-12.108,8.73-19.206,20.257-19.206c10.714,0,20.26,6.748,20.26,18.277c0,9.896-8.617,16.534-15.953,21.888l18.28,22.122
		l10.247-11.875l6.987,7.216l-10.714,12.578l15.72,19.445h-13.504L544.117,255.173L544.117,255.173z M517.106,224.44
		c-6.052,4.19-15.949,10.124-15.949,18.51c0,8.382,7.913,16.182,16.299,16.182c8.15,0,14.668-6.168,20.144-11.642l-19.441-23.752
		L517.106,224.44L517.106,224.44z M521.884,209.068c4.419-3.492,10.479-7.104,10.479-13.505c0-6.17-4.427-9.55-10.251-9.55
		c-5.234,0-9.78,3.73-9.78,9.312c0,4.429,2.679,7.691,5.244,10.947l2.904,3.73L521.884,209.068L521.884,209.068z"/>
</g>
<g>
	<g>
		<path fill-rule="evenodd" clip-rule="evenodd" fill="#D88E30" d="M360.866,812.206c-33.381,24.633-81.771,37.733-123.442,37.733
			c-58.402,0-110.994-21.589-150.792-57.524c-3.125-2.822-0.337-6.675,3.419-4.489c42.938,24.985,96.038,40.032,150.88,40.032
			c36.996,0,77.662-7.679,115.083-23.551C361.656,802.015,366.388,808.125,360.866,812.206z"/>
		<path fill-rule="evenodd" clip-rule="evenodd" fill="#D88E30" d="M374.756,796.348c-4.27-5.465-28.221-2.59-38.982-1.3
			c-3.258,0.39-3.763-2.459-0.826-4.521c19.108-13.42,50.416-9.547,54.053-5.052c3.667,4.531-0.964,35.921-18.867,50.898
			c-2.755,2.304-5.375,1.074-4.152-1.966C370.011,824.345,379.031,801.818,374.756,796.348z"/>
	</g>
	<g>
		<path fill-rule="evenodd" clip-rule="evenodd" fill="#030104" d="M336.532,695.723v-13.04c0.012-1.986,1.505-3.308,3.307-3.301
			l58.446-0.007c1.868,0,3.37,1.359,3.37,3.291v11.184c-0.019,1.877-1.599,4.322-4.401,8.209l-30.275,43.225
			c11.238-0.263,23.127,1.423,33.338,7.161c2.303,1.294,2.918,3.208,3.101,5.088v13.916c0,1.914-2.101,4.136-4.308,2.979
			c-17.986-9.424-41.857-10.452-61.751,0.118c-2.033,1.08-4.159-1.106-4.159-3.027v-13.225c0-2.118,0.041-5.736,2.176-8.962
			l35.076-50.321l-30.54-0.004C338.043,699.006,336.544,697.676,336.532,695.723z"/>
		<path fill-rule="evenodd" clip-rule="evenodd" fill="#030104" d="M123.34,777.17H105.56c-1.692-0.113-3.043-1.382-3.181-3.009
			l0.015-91.256c0-1.827,1.533-3.283,3.431-3.283l16.559-0.005c1.733,0.088,3.122,1.397,3.231,3.065v11.913h0.335
			c4.314-11.522,12.448-16.9,23.4-16.9c11.119,0,18.092,5.378,23.07,16.9c4.317-11.522,14.11-16.9,24.566-16.9
			c7.469,0,15.602,3.072,20.58,9.986c5.642,7.683,4.485,18.818,4.485,28.613l-0.018,57.592c0,1.818-1.533,3.283-3.431,3.283h-17.757
			c-1.785-0.115-3.188-1.527-3.188-3.277l-0.007-48.383c0-3.834,0.333-13.438-0.499-17.086c-1.328-6.148-5.311-7.878-10.453-7.878
			c-4.317,0-8.8,2.881-10.627,7.489c-1.824,4.611-1.659,12.289-1.659,17.475v48.377c0,1.818-1.533,3.283-3.427,3.283h-17.761
			c-1.786-0.115-3.193-1.527-3.193-3.277l-0.018-48.383c0-10.176,1.659-25.151-10.952-25.151c-12.782,0-12.283,14.59-12.283,25.151
			l-0.007,48.377C126.77,775.705,125.234,777.17,123.34,777.17z"/>
		<path fill-rule="evenodd" clip-rule="evenodd" fill="#030104" d="M451.969,677.695c26.392,0,40.662,22.663,40.662,51.467
			c0,27.842-15.765,49.931-40.662,49.931c-25.894,0-40.001-22.666-40.001-50.892C411.968,699.778,426.24,677.695,451.969,677.695z
			 M452.13,696.324c-13.109,0-13.939,17.855-13.939,28.995c0,11.138-0.165,34.95,13.778,34.95c13.779,0,14.44-19.203,14.44-30.913
			c0-7.681-0.332-16.901-2.659-24.198C461.761,698.818,457.773,696.324,452.13,696.324z"/>
		<path fill-rule="evenodd" clip-rule="evenodd" fill="#030104" d="M526.858,777.17h-17.717c-1.781-0.115-3.19-1.527-3.19-3.277
			l-0.03-91.292c0.15-1.671,1.626-2.979,3.416-2.979l16.492-0.005c1.553,0.082,2.835,1.139,3.16,2.553v13.961h0.335
			c4.98-12.486,11.948-18.436,24.23-18.436c7.967,0,15.769,2.878,20.75,10.756c4.645,7.296,4.645,19.584,4.645,28.42v57.426
			c-0.198,1.616-1.65,2.873-3.407,2.873H557.72c-1.647-0.107-2.976-1.317-3.166-2.873v-49.549c0-9.987,1.163-24.584-11.12-24.584
			c-4.316,0-8.3,2.881-10.292,7.295c-2.489,5.572-2.824,11.138-2.824,17.289v49.139C530.288,775.705,528.75,777.17,526.858,777.17z"
			/>
		<path fill-rule="evenodd" clip-rule="evenodd" fill="#030104" d="M289.945,733.588c0,6.932,0.164,12.701-3.332,18.863
			c-2.825,5.001-7.319,8.082-12.306,8.082c-6.819,0-10.811-5.198-10.811-12.896c0-15.145,13.583-17.896,26.448-17.896V733.588z
			 M307.865,776.941c-1.173,1.057-2.871,1.128-4.197,0.414c-5.905-4.908-6.963-7.178-10.194-11.849
			c-9.758,9.941-16.67,12.927-29.314,12.927c-14.968,0-26.613-9.242-26.613-27.715c0-14.434,7.819-24.25,18.962-29.062
			c9.646-4.235,23.12-5.004,33.436-6.162v-2.308c0-4.236,0.332-9.235-2.165-12.893c-2.165-3.274-6.32-4.622-9.98-4.622
			c-6.783,0-12.81,3.476-14.292,10.677c-0.308,1.603-1.478,3.189-3.087,3.272l-17.235-1.868c-1.457-0.329-3.071-1.496-2.654-3.719
			c3.965-20.906,22.844-27.223,39.761-27.223c8.654,0,19.961,2.307,26.782,8.854c8.652,8.084,7.818,18.862,7.818,30.605v27.696
			c0,8.337,3.462,11.989,6.71,16.478c1.138,1.623,1.391,3.543-0.059,4.727c-3.629,3.045-10.082,8.649-13.634,11.81L307.865,776.941z
			"/>
		<path fill-rule="evenodd" clip-rule="evenodd" fill="#030104" d="M56.851,733.588c0,6.932,0.167,12.701-3.326,18.863
			c-2.825,5.001-7.318,8.082-12.309,8.082c-6.818,0-10.812-5.198-10.812-12.896c0-15.145,13.587-17.896,26.446-17.896V733.588z
			 M74.779,776.941c-1.175,1.057-2.876,1.128-4.201,0.414c-5.909-4.908-6.967-7.178-10.192-11.849
			c-9.763,9.941-16.674,12.927-29.314,12.927c-14.97,0-26.614-9.242-26.614-27.715c0-14.434,7.815-24.25,18.961-29.062
			c9.646-4.235,23.123-5.004,33.432-6.162v-2.308c0-4.236,0.334-9.235-2.159-12.893c-2.165-3.274-6.324-4.622-9.981-4.622
			c-6.781,0-12.814,3.476-14.291,10.677c-0.308,1.603-1.478,3.189-3.09,3.272l-17.231-1.868c-1.458-0.329-3.075-1.496-2.656-3.719
			c3.96-20.906,22.839-27.223,39.764-27.223c8.648,0,19.959,2.307,26.78,8.854c8.647,8.084,7.818,18.862,7.818,30.605v27.696
			c0,8.337,3.459,11.989,6.708,16.478c1.133,1.623,1.393,3.543-0.056,4.727c-3.633,3.045-10.088,8.649-13.636,11.81L74.779,776.941z
			"/>
	</g>
</g>
<g>
	<g>
		<path fill="#C65B97" d="M275.805,849.301c0,2.423,1.077,3.637,3.247,3.637c1.875,0,3.945-0.851,6.212-2.545
			c2.26-1.695,4.293-3.932,6.116-6.697l1.114,0.582c-1.709,3.034-3.931,5.542-6.681,7.529c-2.733,1.988-5.332,2.982-7.771,2.982
			c-1.573,0-2.817-0.479-3.728-1.437c-0.911-0.966-1.371-2.282-1.371-3.948c0-2.401,0.829-4.458,2.485-6.159
			c1.657-1.71,3.646-2.563,5.98-2.563c1.122,0,2.019,0.267,2.697,0.799c0.684,0.542,1.016,1.269,1.016,2.163
			c0,1.484-0.948,2.802-2.817,3.944C280.414,848.735,278.26,849.301,275.805,849.301z M275.902,848.104
			c1.845-0.087,3.397-0.583,4.708-1.487c1.309-0.9,1.957-1.933,1.957-3.115c0-1.061-0.496-1.582-1.492-1.582
			c-1.197,0-2.289,0.597-3.283,1.8C276.784,844.931,276.151,846.391,275.902,848.104z"/>
		<path fill="#C65B97" d="M297.096,850.097c0.3,0.633,0.452,1.228,0.452,1.809c0,1.258-0.565,2.373-1.68,3.305
			c-1.121,0.941-2.432,1.418-3.925,1.418c-0.895,0-1.64-0.226-2.251-0.648c-0.632-0.438-0.948-0.948-0.948-1.551
			c0-0.646,0.437-1.302,1.294-1.966c0.845-0.661,2.269-1.453,4.256-2.366l-1.039-1.603c-1.281-1.938-1.906-3.463-1.906-4.557
			c0-1.571,0.958-2.838,2.9-3.802c1.175,0.431,1.771,0.977,1.771,1.634c0,0.926-0.762,1.812-2.252,2.663l1.477,2.609l1.173,2.015
			c1.673-0.948,2.917-1.753,3.758-2.433c0.867-0.675,1.929-1.706,3.217-3.117l1.063,0.604
			C302.562,846.497,300.115,848.494,297.096,850.097z M294.874,851.22c-2.568,1.31-3.856,2.327-3.856,3.042
			c0,0.681,0.512,1.025,1.56,1.025c0.759,0,1.384-0.249,1.867-0.747c0.481-0.489,0.729-1.131,0.729-1.903
			C295.174,852.17,295.078,851.702,294.874,851.22z"/>
		<path fill="#C65B97" d="M313.265,853.705l-0.957,4.594c-0.218,1.04-0.314,1.944-0.314,2.714c0,0.487,0.11,0.932,0.331,1.329
			c-0.882,0.268-1.545,0.408-2.004,0.408c-0.73,0-1.092-0.392-1.092-1.168c0-0.602,0.143-1.598,0.429-2.965l3.826-18.242
			c-0.761,0.152-1.394,0.219-1.92,0.219c-0.746,0-1.312-0.166-1.673-0.521c-0.367-0.338-0.662-0.971-0.881-1.919
			c0.647,0.414,1.604,0.616,2.914,0.616c1.611,0,3.163-0.285,4.654-0.852l-1.009,4.799c1.492-1.355,3.034-2.036,4.609-2.036
			c1.393,0,2.553,0.499,3.479,1.499c0.912,0.996,1.371,2.238,1.371,3.73c0,2.335-0.844,4.339-2.53,6.033
			c-1.71,1.686-3.727,2.528-6.062,2.528C315.156,854.473,314.115,854.219,313.265,853.705z M313.664,851.779
			c0.896,0.977,1.973,1.466,3.246,1.466c1.544,0,2.854-0.608,3.931-1.835c1.077-1.23,1.619-2.722,1.619-4.476
			c0-1.272-0.292-2.298-0.91-3.08c-0.61-0.791-1.407-1.181-2.382-1.181c-1.228,0-2.553,0.653-3.974,1.956L313.664,851.779z"/>
		<path fill="#C65B97" d="M338.851,846.889c-1.126,2.195-2.502,4.059-4.129,5.59c-1.633,1.546-3.066,2.311-4.285,2.311
			c-0.935,0-1.68-0.399-2.223-1.176c-0.563-0.789-0.83-1.822-0.83-3.13c0-2.585,0.83-4.872,2.485-6.847
			c1.658-1.967,3.565-2.955,5.733-2.955c1.326,0,2.749,0.387,4.291,1.167c0.234-0.771,1.161-1.158,2.78-1.158
			c0.105,0,0.271,0.007,0.521,0.014c-0.498,0.728-0.897,1.711-1.146,2.963l-0.232,1.046c-0.249,1.19-0.363,2.562-0.363,4.127
			c0,1.823,0.43,2.726,1.326,2.726c0.941,0,2.236-0.744,3.872-2.244c1.626-1.491,3.229-3.396,4.824-5.708l1.028,0.67
			c-1.627,2.736-3.465,5.018-5.553,6.847c-2.069,1.82-3.863,2.733-5.354,2.733c-1.882,0-2.816-1.491-2.816-4.474
			C338.78,848.771,338.803,847.938,338.851,846.889z M339.465,843.917c-1.821-1.139-3.365-1.705-4.577-1.705
			c-1.305,0-2.448,0.755-3.411,2.283c-0.959,1.513-1.438,3.323-1.438,5.408c0,1.673,0.563,2.508,1.726,2.508
			c1.242,0,3.645-2.6,7.168-7.802C338.971,844.541,339.151,844.308,339.465,843.917z"/>
		<path fill="#C65B97" d="M352.504,854.39c-0.611,0.257-1.094,0.399-1.438,0.399c-0.897,0-1.349-0.385-1.349-1.128
			c0-0.371,0.164-1.325,0.481-2.84l0.646-3.091c0.4-1.835,0.611-3.208,0.611-4.094c0-0.475-0.145-0.875-0.446-1.204
			c0.914-0.304,1.658-0.453,2.239-0.453c0.607,0,0.927,0.375,0.927,1.114c0,0.452-0.212,1.658-0.664,3.59l-0.73,3.618
			c1.642-3.045,3.298-5.399,4.969-7.096c1.68-1.679,3.186-2.524,4.541-2.524c0.483,0,0.913,0.13,1.259,0.387
			c0.354,0.27,0.521,0.582,0.521,0.954c0,0.581-0.663,1.349-1.989,2.313c-0.331-0.653-0.799-0.98-1.409-0.98
			c-1.113,0-2.521,1.111-4.246,3.347c-1.056,1.392-1.989,2.841-2.764,4.308c-0.799,1.484-1.177,2.537-1.177,3.17L352.504,854.39z"/>
		<path fill="#C65B97" d="M374.178,849.556c0.249,0.407,0.36,0.762,0.36,1.071c0,0.804-0.729,1.7-2.166,2.687
			c-1.447,0.978-2.773,1.476-3.948,1.476c-1.062,0-1.906-0.445-2.568-1.333c-0.649-0.888-0.979-2.033-0.979-3.434
			c0-1.551,0.437-3.768,1.295-6.651l0.611-2.084h-2.215c-0.934,0-1.657,0.137-2.222,0.383c0.512-0.881,0.926-1.429,1.258-1.648
			c0.332-0.227,0.896-0.333,1.688-0.333h1.974l0.265-0.867c0.396-1.27,0.879-2.151,1.445-2.635c0.562-0.472,1.392-0.716,2.514-0.716
			c0.122,0,0.332,0.017,0.633,0.031c-0.679,0.827-1.394,2.221-2.137,4.187h6.926c1.206,0,2.133-0.15,2.766-0.45
			c-0.219,0.845-0.497,1.399-0.86,1.664c-0.368,0.255-1.046,0.385-2.025,0.385h-7.357c-0.082,0.279-0.164,0.482-0.197,0.609
			c-1.062,3.42-1.587,5.996-1.587,7.733c0,1.923,0.729,2.879,2.183,2.879c0.745,0,1.574-0.295,2.472-0.897
			C373.185,851.003,373.809,850.317,374.178,849.556z"/>
		<path fill="#C65B97" d="M379.148,849.301c0,2.423,1.077,3.637,3.244,3.637c1.869,0,3.939-0.851,6.215-2.545
			c2.25-1.695,4.292-3.932,6.115-6.697l1.105,0.582c-1.708,3.034-3.922,5.542-6.679,7.529c-2.712,1.988-5.317,2.982-7.766,2.982
			c-1.572,0-2.816-0.479-3.727-1.437c-0.912-0.966-1.379-2.282-1.379-3.948c0-2.401,0.828-4.458,2.485-6.159
			c1.657-1.71,3.646-2.563,5.981-2.563c1.128,0,2.024,0.267,2.701,0.799c0.68,0.542,1.01,1.269,1.01,2.163
			c0,1.484-0.941,2.802-2.815,3.944C383.75,848.735,381.596,849.301,379.148,849.301z M379.247,848.104
			c1.836-0.087,3.397-0.583,4.705-1.487c1.304-0.9,1.95-1.933,1.95-3.115c0-1.061-0.496-1.582-1.491-1.582
			c-1.188,0-2.281,0.597-3.274,1.8C380.119,844.931,379.494,846.391,379.247,848.104z"/>
		<path fill="#C65B97" d="M413.227,847.196c-1.355,2.347-2.786,4.18-4.277,5.547c-1.492,1.362-2.816,2.046-3.992,2.046
			c-0.925,0-1.673-0.392-2.219-1.167c-0.545-0.769-0.832-1.808-0.832-3.113c0-2.61,0.832-4.907,2.472-6.88
			c1.641-1.959,3.548-2.947,5.716-2.947c1.311,0,2.718,0.396,4.262,1.184l1.408-6.695c-0.784,0.15-1.408,0.233-1.928,0.233
			c-0.758,0-1.325-0.174-1.672-0.518c-0.377-0.356-0.662-0.997-0.874-1.951c0.626,0.414,1.59,0.617,2.899,0.617
			c1.604,0,3.163-0.286,4.671-0.85l-2.871,13.62c-0.307,1.523-0.473,2.82-0.473,3.896c0,1.425,0.429,2.138,1.287,2.138
			c0.828,0,2.235-0.941,4.18-2.801c1.95-1.868,3.577-3.812,4.888-5.852l1.055,0.648c-1.536,2.702-3.479,5.111-5.815,7.235
			c-2.318,2.133-4.172,3.201-5.564,3.201c-1.753,0-2.651-1.339-2.651-4.028C412.895,849.654,413.007,848.472,413.227,847.196z
			 M413.919,843.917c-1.822-1.139-3.326-1.705-4.519-1.705c-1.31,0-2.454,0.76-3.396,2.29c-0.966,1.523-1.446,3.32-1.446,5.401
			c0,1.673,0.58,2.508,1.739,2.508c1.228,0,3.615-2.6,7.126-7.802C413.491,844.516,413.657,844.283,413.919,843.917z"/>
		<path fill="#C65B97" d="M426.385,849.301c0,2.423,1.091,3.637,3.244,3.637c1.892,0,3.948-0.851,6.213-2.545
			c2.252-1.695,4.308-3.932,6.118-6.697l1.12,0.582c-1.718,3.034-3.94,5.542-6.673,7.529c-2.734,1.988-5.339,2.982-7.788,2.982
			c-1.573,0-2.815-0.479-3.728-1.437c-0.911-0.966-1.36-2.282-1.36-3.948c0-2.401,0.824-4.458,2.47-6.159
			c1.656-1.71,3.644-2.563,5.979-2.563c1.13,0,2.027,0.267,2.704,0.799c0.677,0.542,1.009,1.269,1.009,2.163
			c0,1.484-0.926,2.802-2.815,3.944C430.985,848.735,428.832,849.301,426.385,849.301z M426.498,848.104
			c1.819-0.087,3.395-0.583,4.691-1.487c1.31-0.9,1.95-1.933,1.95-3.115c0-1.061-0.475-1.582-1.471-1.582
			c-1.209,0-2.304,0.597-3.296,1.8C427.363,844.931,426.73,846.391,426.498,848.104z"/>
		<path fill="#C65B97" d="M453.752,850.105c3.147-6.28,5.934-9.424,8.335-9.424c1.064,0,1.576,0.716,1.576,2.168
			c0,0.621-0.219,2.014-0.678,4.192l-0.783,3.764c1.529-3.05,3.118-5.505,4.79-7.349c1.655-1.846,3.08-2.775,4.293-2.775
			c1.325,0,1.987,0.742,1.987,2.207c0,0.535-0.202,1.741-0.596,3.64l-0.399,1.943c-0.247,1.158-0.368,2.025-0.368,2.591
			c0,0.995,0.368,1.491,1.117,1.491c1.671,0,4.239-2.959,7.718-8.858l1.091,0.588c-3.771,7.005-7.087,10.506-9.902,10.506
			c-1.823,0-2.72-1.128-2.72-3.366c0-0.744,0.166-1.936,0.528-3.585l0.368-1.714c0.224-1.163,0.362-1.878,0.362-2.163
			c0-0.356-0.197-0.537-0.582-0.537c-0.94,0-2.635,1.779-5.067,5.336c-2.205,3.236-3.313,5.091-3.313,5.551
			c0,0.051,0.015,0.143,0.045,0.261c-0.112,0.031-0.33,0.075-0.625,0.158c-0.137,0.044-0.33,0.067-0.594,0.067
			c-0.813,0-1.229-0.36-1.229-1.099c0-0.228,0.15-0.903,0.415-2.035c0.082-0.404,0.181-0.835,0.263-1.294l0.565-2.639
			c0.398-1.887,0.594-3.033,0.594-3.406c0-0.562-0.218-0.833-0.633-0.833c-0.941,0-2.334,1.598-4.171,4.806
			c-1.822,3.172-2.735,5.068-2.735,5.68c0,0.172,0.068,0.338,0.196,0.504c-0.475,0.202-0.911,0.309-1.303,0.309
			c-0.912,0-1.364-0.467-1.364-1.393c0-0.112,0.137-1.325,0.386-3.62l0.293-2.639c0.121-0.934,0.168-1.792,0.168-2.583
			c0-0.993-0.213-1.717-0.642-2.184c1.011-0.349,1.741-0.522,2.154-0.522c0.76,0,1.16,0.432,1.16,1.29
			c0,0.312-0.121,1.446-0.317,3.418L453.752,850.105z"/>
		<path fill="#C65B97" d="M494.194,844.308c-1.967,3.28-3.954,5.85-5.979,7.696c-2.003,1.859-3.827,2.785-5.43,2.785
			c-0.979,0-1.764-0.309-2.358-0.91c-0.594-0.602-0.894-1.4-0.894-2.386c0-0.372,0.079-0.976,0.247-1.78l0.3-1.372
			c0.431-1.97,0.648-3.352,0.648-4.147c0-0.475-0.165-0.85-0.466-1.153c1.144-0.247,1.859-0.366,2.138-0.366
			c0.648,0,0.979,0.429,0.979,1.287c0,0.641-0.137,1.551-0.383,2.741l-0.514,2.423c-0.25,1.169-0.384,1.922-0.384,2.27
			c0,1.023,0.467,1.543,1.378,1.543c1.091,0,2.554-0.874,4.376-2.615c1.806-1.744,3.562-3.951,5.265-6.627L494.194,844.308z
			 M482.553,838.049l0.179,0.014c0.58-0.021,1.424-0.309,2.516-0.845c1.114-0.532,1.959-1.075,2.592-1.632
			c-0.398,1.146-1.078,2.11-2.056,2.87c-1.479,1.181-2.485,1.77-2.998,1.77c-0.354,0-0.535-0.204-0.535-0.61
			C482.25,839.035,482.348,838.509,482.553,838.049z"/>
		<path fill="#C65B97" d="M504.272,854.805c0.193-0.725,0.3-1.349,0.3-1.889c0-2.035-0.465-4.3-1.378-6.771
			c-0.928-2.478-1.986-4.354-3.23-5.61c0.761-0.371,1.437-0.551,2.043-0.551c0.954,0,1.934,1.197,2.911,3.593
			c0.995,2.378,1.688,5.271,2.116,8.66c1.531-1.839,2.787-3.734,3.781-5.695c0.994-1.95,1.557-3.625,1.688-5.061
			c1.31,0.499,1.958,1.072,1.958,1.696c0,0.574-0.609,1.837-1.875,3.826c-1.242,1.989-2.599,3.878-4.074,5.649
			c-0.709,0.864-1.311,1.405-1.808,1.658C506.229,854.557,505.415,854.722,504.272,854.805z"/>
		<path fill="#C65B97" d="M531.641,844.308c-1.965,3.28-3.954,5.85-5.979,7.696c-2.02,1.859-3.826,2.785-5.433,2.785
			c-0.977,0-1.776-0.309-2.371-0.91s-0.896-1.4-0.896-2.386c0-0.372,0.084-0.976,0.264-1.78l0.287-1.372
			c0.429-1.97,0.647-3.352,0.647-4.147c0-0.475-0.153-0.85-0.452-1.153c1.128-0.247,1.861-0.366,2.138-0.366
			c0.648,0,0.964,0.429,0.964,1.287c0,0.641-0.119,1.551-0.381,2.741l-0.499,2.423c-0.265,1.169-0.385,1.922-0.385,2.27
			c0,1.023,0.453,1.543,1.379,1.543c1.093,0,2.538-0.874,4.36-2.615c1.801-1.744,3.577-3.951,5.264-6.627L531.641,844.308z
			 M519.997,838.049l0.165,0.014c0.596-0.021,1.439-0.309,2.531-0.845c1.099-0.532,1.959-1.075,2.567-1.632
			c-0.376,1.146-1.054,2.11-2.034,2.87c-1.49,1.181-2.485,1.77-3.02,1.77c-0.346,0-0.512-0.204-0.512-0.61
			C519.695,839.035,519.777,838.509,519.997,838.049z"/>
		<path fill="#C65B97" d="M539.532,847.196c-1.364,2.347-2.786,4.18-4.276,5.547c-1.493,1.362-2.817,2.046-3.978,2.046
			c-0.942,0-1.687-0.392-2.236-1.167c-0.55-0.769-0.831-1.808-0.831-3.113c0-2.61,0.831-4.907,2.473-6.88
			c1.641-1.959,3.547-2.947,5.716-2.947c1.311,0,2.719,0.396,4.255,1.184l1.408-6.695c-0.777,0.15-1.408,0.233-1.92,0.233
			c-0.761,0-1.327-0.174-1.674-0.518c-0.367-0.356-0.662-0.997-0.881-1.951c0.633,0.414,1.592,0.617,2.9,0.617
			c1.613,0,3.164-0.286,4.679-0.85l-2.855,13.62c-0.33,1.523-0.481,2.82-0.481,3.896c0,1.425,0.414,2.138,1.28,2.138
			c0.843,0,2.237-0.941,4.171-2.801c1.957-1.868,3.577-3.812,4.889-5.852l1.077,0.648c-1.562,2.702-3.494,5.111-5.831,7.235
			c-2.316,2.133-4.178,3.201-5.563,3.201c-1.765,0-2.65-1.339-2.65-4.028C539.202,849.654,539.313,848.472,539.532,847.196z
			 M540.226,843.917c-1.806-1.139-3.329-1.705-4.527-1.705c-1.303,0-2.446,0.76-3.396,2.29c-0.955,1.523-1.437,3.32-1.437,5.401
			c0,1.673,0.578,2.508,1.737,2.508c1.229,0,3.614-2.6,7.141-7.802C539.797,844.516,539.961,844.283,540.226,843.917z"/>
		<path fill="#C65B97" d="M561.281,846.889c-1.12,2.195-2.498,4.059-4.125,5.59c-1.635,1.546-3.065,2.311-4.286,2.311
			c-0.935,0-1.681-0.399-2.222-1.176c-0.564-0.789-0.829-1.822-0.829-3.13c0-2.585,0.829-4.872,2.485-6.847
			c1.658-1.967,3.562-2.955,5.73-2.955c1.328,0,2.75,0.387,4.295,1.167c0.233-0.771,1.16-1.158,2.778-1.158
			c0.107,0,0.271,0.007,0.52,0.014c-0.499,0.728-0.896,1.711-1.146,2.963l-0.233,1.046c-0.248,1.19-0.36,2.562-0.36,4.127
			c0,1.823,0.429,2.726,1.327,2.726c0.941,0,2.235-0.744,3.87-2.244c1.628-1.491,3.229-3.396,4.827-5.708l1.023,0.67
			c-1.626,2.736-3.464,5.018-5.551,6.847c-2.07,1.82-3.863,2.733-5.353,2.733c-1.871,0-2.819-1.491-2.819-4.474
			C561.214,848.771,561.236,847.938,561.281,846.889z M561.9,843.917c-1.823-1.139-3.367-1.705-4.579-1.705
			c-1.302,0-2.448,0.755-3.412,2.283c-0.956,1.513-1.439,3.323-1.439,5.408c0,1.673,0.581,2.508,1.726,2.508
			c1.242,0,3.646-2.6,7.17-7.802C561.402,844.541,561.583,844.308,561.9,843.917z"/>
	</g>
	<g>
		<path fill-rule="evenodd" clip-rule="evenodd" fill="#C65B97" d="M3.786,689.239h9.571v97.859c0,0,0,7.042,6.312,7.042
			c5.919,0,51.43,0,51.43,0v10.613H15.166c0,0-11.403-0.019-11.403-12.646C3.763,779.637,3.786,689.239,3.786,689.239L3.786,689.239
			L3.786,689.239z"/>
		<path fill-rule="evenodd" clip-rule="evenodd" fill="#C65B97" d="M17.002,689.239h9.542v83.929c0,0-0.678,6.514,5.535,6.498
			c30.751-0.029,38.974,0,38.974,0v10.492H22.606c0,0-5.649-0.43-5.604-6.229C17.04,779.817,17.002,689.239,17.002,689.239
			L17.002,689.239L17.002,689.239z"/>
		<path fill-rule="evenodd" clip-rule="evenodd" fill="#C65B97" d="M30.144,689.239h9.595l0.015,70.996c0,0-0.55,4.835,4.007,4.835
			c8.134,0,27.338,0,27.338,0l-0.045,10.536H34.233c0,0-4.089-0.813-4.089-5.715C30.144,765.416,30.144,689.239,30.144,689.239
			L30.144,689.239L30.144,689.239z"/>
		<path fill-rule="evenodd" clip-rule="evenodd" fill="#C65B97" d="M43.331,689.239h9.61v57.298c0,0-0.61,4.059,3.578,4.059
			c10.807,0,14.58,0,14.58,0v10.491H48.913c-3.956,0-5.582-1.198-5.582-5.235C43.331,751.454,43.331,689.239,43.331,689.239
			L43.331,689.239L43.331,689.239z"/>
		<path fill-rule="evenodd" clip-rule="evenodd" fill="#C65B97" d="M123.742,804.624h-9.579l0.052-97.86c0,0,0-7.041-6.317-7.041
			c-5.913,0-51.424-0.016-51.424-0.016v-10.635l55.934,0.038c0,0,11.395,0.03,11.395,12.646
			C123.787,714.227,123.742,804.624,123.742,804.624L123.742,804.624L123.742,804.624z"/>
		<path fill-rule="evenodd" clip-rule="evenodd" fill="#C65B97" d="M110.517,804.624h-9.541l0.029-83.927
			c0,0,0.664-6.522-5.55-6.501c-30.72,0.017-38.952-0.044-38.952-0.044l0.016-10.461l48.433,0.015c0,0,5.664,0.431,5.618,6.228
			C110.531,714.046,110.517,804.624,110.517,804.624L110.517,804.624L110.517,804.624z"/>
		<path fill-rule="evenodd" clip-rule="evenodd" fill="#C65B97" d="M97.375,804.624l-9.609-0.013l0.038-70.983
			c0,0,0.542-4.835-4.015-4.835c-8.147,0-27.338-0.016-27.338-0.016l0.053-10.544l36.812,0.017c0,0,4.097,0.82,4.097,5.708
			C97.413,728.445,97.375,804.624,97.375,804.624L97.375,804.624L97.375,804.624z"/>
		<path fill-rule="evenodd" clip-rule="evenodd" fill="#C65B97" d="M84.173,804.611h-9.595l0.038-57.291
			c0,0,0.596-4.067-3.585-4.067c-10.814,0-14.581,0-14.581,0v-10.491l22.188,0.016c3.961,0,5.588,1.197,5.588,5.219
			C84.226,742.408,84.173,804.611,84.173,804.611L84.173,804.611L84.173,804.611z"/>
		<polygon fill-rule="evenodd" clip-rule="evenodd" fill="#C65B97" points="220.948,713.067 230.739,713.067 230.739,724.078 
			220.948,724.078 220.948,713.067 		"/>
		<polygon fill-rule="evenodd" clip-rule="evenodd" fill="#C65B97" points="220.948,737.084 230.739,737.084 230.739,804.754 
			220.948,804.754 220.948,737.084 		"/>
		<polygon fill-rule="evenodd" clip-rule="evenodd" fill="#C65B97" points="568.09,712.947 577.903,712.947 577.903,804.754 
			568.09,804.754 568.09,712.947 		"/>
		<polygon fill-rule="evenodd" clip-rule="evenodd" fill="#C65B97" points="285.43,737.084 265.683,791.55 245.936,737.084 
			234.751,737.084 259.289,804.754 272.077,804.754 296.614,737.084 285.43,737.084 		"/>
		<path fill-rule="evenodd" clip-rule="evenodd" fill="#C65B97" d="M193.292,793.998c-3.298,0-5.798-2.915-5.798-6.546v-74.385
			h-9.806v76.142c0,8.555,6.176,15.476,13.985,15.476h25.711v-10.687H193.292L193.292,793.998z"/>
		<path fill-rule="evenodd" clip-rule="evenodd" fill="#C65B97" d="M379.179,747.99c-3.3,0-5.8,2.915-5.8,6.544v50.477h-9.807
			V752.75c0-8.525,6.177-15.462,13.978-15.462h10.312v10.702H379.179L379.179,747.99z"/>
		<path fill-rule="evenodd" clip-rule="evenodd" fill="#C65B97" d="M358.398,771.684v-2.08c0-19.514-14.526-35.373-32.375-35.373
			c-17.842,0-32.339,15.859-32.339,35.373c0,19.5,14.497,35.365,32.339,35.365c15.062,0,27.92-11.061,31.448-26.982h-9.495
			c-3.261,10.197-12.042,17.059-21.953,17.059c-12.027,0-22.015-9.91-23.196-23.361H358.398L358.398,771.684z M303.89,761.741
			c3.268-10.724,12.259-17.593,22.134-17.593c9.88,0,18.858,6.869,22.119,17.593H303.89L303.89,761.741z"/>
		<path fill-rule="evenodd" clip-rule="evenodd" fill="#C65B97" d="M530.547,733.846c-11.748,0-22.067,6.795-27.834,16.992
			c-5.762-10.197-16.072-16.992-27.836-16.992s-22.067,6.795-27.821,16.992c-5.774-10.197-16.085-16.992-27.835-16.992
			c-18.074,0-32.722,16.011-32.722,35.758c0,0.791,0,58.098,0,58.098h9.896v-32.506c5.881,6.273,13.932,10.152,22.826,10.152
			c11.75,0,22.061-6.792,27.835-16.983c5.754,10.191,16.058,16.983,27.821,16.983s22.074-6.792,27.836-16.983
			c5.767,10.191,16.086,16.983,27.834,16.983c18.074,0,32.709-16.003,32.709-35.744
			C563.256,749.856,548.621,733.846,530.547,733.846L530.547,733.846z M419.221,794.662c-12.637,0-22.924-11.244-22.924-25.059
			c0-13.826,10.287-25.07,22.924-25.07c12.615,0,22.903,11.244,22.903,25.07C442.124,783.418,431.836,794.662,419.221,794.662
			L419.221,794.662z M474.877,794.662c-12.622,0-22.91-11.244-22.91-25.059c0-13.826,10.288-25.07,22.91-25.07
			c12.645,0,22.932,11.244,22.932,25.07C497.809,783.418,487.521,794.662,474.877,794.662L474.877,794.662z M530.547,794.662
			c-12.622,0-22.908-11.244-22.908-25.059c0-13.826,10.286-25.07,22.908-25.07c12.646,0,22.933,11.244,22.933,25.07
			C553.479,783.418,543.192,794.662,530.547,794.662L530.547,794.662z"/>
		<path fill-rule="evenodd" clip-rule="evenodd" fill="#C65B97" d="M589.998,729.027c-4.322,0-7.801-3.82-7.801-8.57
			c0-4.723,3.479-8.533,7.801-8.533c4.339,0,7.834,3.811,7.834,8.533C597.832,725.207,594.337,729.027,589.998,729.027
			L589.998,729.027z M589.998,713.347c-3.614,0-6.528,3.185-6.528,7.11c0,3.953,2.914,7.161,6.528,7.161
			c3.631,0,6.56-3.208,6.56-7.161C596.558,716.531,593.629,713.347,589.998,713.347L589.998,713.347z M586.587,716.005h3.706
			c2.094,0,2.786,1.431,2.786,2.425c0,1.492-0.964,2.561-2.402,2.65v0.053c0.731,0.271,1.257,1.047,1.959,2.283l1.024,1.791h-1.659
			l-0.743-1.438c-1.062-2.078-1.462-2.455-2.518-2.455h-0.798v3.893h-1.355V716.005L586.587,716.005z M589.9,720.027
			c1.042,0,1.74-0.438,1.74-1.402c0-0.827-0.617-1.354-1.491-1.354h-2.207v2.757H589.9L589.9,720.027z"/>
	</g>
	<path fill-rule="evenodd" clip-rule="evenodd" fill="#C65B97" d="M582.67,841.505c-2.115,0-3.841-1.885-3.841-4.218
		c0-2.319,1.726-4.203,3.841-4.203c2.141,0,3.865,1.884,3.865,4.203C586.535,839.62,584.811,841.505,582.67,841.505L582.67,841.505z
		 M582.67,833.777c-1.768,0-3.192,1.574-3.192,3.51c0,1.935,1.425,3.517,3.192,3.517c1.793,0,3.232-1.582,3.232-3.517
		C585.902,835.352,584.463,833.777,582.67,833.777L582.67,833.777z M580.999,835.087h1.823c1.032,0,1.378,0.716,1.378,1.196
		c0,0.733-0.483,1.261-1.176,1.307v0.028c0.346,0.13,0.61,0.511,0.957,1.123l0.496,0.879h-0.813l-0.36-0.712
		c-0.528-1.018-0.73-1.207-1.242-1.207h-0.4v1.919h-0.662V835.087L580.999,835.087z M582.643,837.077c0.497,0,0.84-0.226,0.84-0.692
		c0-0.408-0.293-0.67-0.729-0.67h-1.093v1.362H582.643L582.643,837.077z"/>
</g>
</svg>
