<?xml version="1.0" encoding="iso-8859-1"?>
<!-- Generator: Adobe Illustrator 19.0.0, SVG Export Plug-In . SVG Version: 6.00 Build 0)  -->
<svg version="1.1" id="Capa_1" xmlns="http://www.w3.org/2000/svg" xmlns:xlink="http://www.w3.org/1999/xlink" x="0px" y="0px"
	 viewBox="0 0 512.001 512.001" style="enable-background:new 0 0 512.001 512.001;" xml:space="preserve">
<path style="fill:#AD7B64;" d="M450.146,0.001H97.248v0.001V0c-1.639,0-3.257,0.089-4.852,0.256V447.45h4.852v0.001h363.553
	c0-10.231,0-429.035,0-436.794C460.801,4.771,456.031,0.001,450.146,0.001z"/>
<path style="fill:#966653;" d="M83.473,447.451h13.775V0.001c-25.418,0-46.049,20.602-46.049,46.05v433.675
	C51.199,461.975,65.722,447.451,83.473,447.451z"/>
<path style="fill:#875848;" d="M71.803,7.671C59.387,15.92,51.198,30.026,51.198,46.05v433.675c0-13.64,8.58-25.366,20.605-30.069
	V7.671z"/>
<path style="fill:#E4EAF8;" d="M83.473,447.451c-17.751,0-32.275,14.524-32.275,32.275l0,0c0,17.751,14.524,32.275,32.275,32.275
	c6.364,0,362.583,0,367.392,0c5.487,0,9.936-4.448,9.936-9.936v-54.614C450.703,447.451,93.651,447.451,83.473,447.451z"/>
<path style="fill:#D8DCE5;" d="M450.866,491.396c-4.81,0-361.029,0-367.392,0c-14.152,0-26.243-9.235-30.568-21.972
	c-1.1,3.24-1.706,6.702-1.706,10.303l0,0c0,17.751,14.524,32.275,32.275,32.275c6.364,0,362.582,0,367.392,0
	c5.487,0,9.936-4.448,9.936-9.936V481.46C460.801,486.947,456.353,491.396,450.866,491.396z"/>
<path style="fill:#FFC850;" d="M371.578,146.71h-63.325c-3.156,0-5.714-2.558-5.714-5.714v-63.74c0-3.156-2.558-5.714-5.714-5.714
	H255.75c-3.156,0-5.714,2.558-5.714,5.714v63.74c0,3.156-2.558,5.714-5.714,5.714h-63.325c-3.156,0-5.714,2.558-5.714,5.714v41.074
	c0,3.156,2.558,5.714,5.714,5.714h63.325c3.156,0,5.714,2.558,5.714,5.714v165.268c0,3.156,2.558,5.714,5.714,5.714h41.074
	c3.156,0,5.714-2.558,5.714-5.714V204.929c0-3.156,2.558-5.714,5.714-5.714h63.325c3.156,0,5.714-2.558,5.714-5.714v-41.074
	C377.292,149.269,374.734,146.71,371.578,146.71z"/>
<g>
	<path style="fill:#F9B938;" d="M270.639,140.996v-63.74c0-3.156,2.558-5.714,5.714-5.714h-20.605c-3.156,0-5.714,2.558-5.714,5.714
		v63.74c0,3.156-2.559,5.714-5.714,5.714h20.605C268.08,146.71,270.639,144.152,270.639,140.996z"/>
	<path style="fill:#F9B938;" d="M270.639,370.197V204.929c0-3.156-2.559-5.714-5.714-5.714H244.32c3.156,0,5.714,2.558,5.714,5.714
		v165.268c0,3.156,2.558,5.714,5.714,5.714h20.605C273.198,375.912,270.639,373.354,270.639,370.197z"/>
	<path style="fill:#F9B938;" d="M195.885,193.5v-41.075c0-3.156,2.558-5.714,5.714-5.714h-20.605c-3.156,0-5.714,2.558-5.714,5.714
		V193.5c0,3.156,2.558,5.714,5.714,5.714h20.605C198.443,199.214,195.885,196.656,195.885,193.5z"/>
</g>
<g>
</g>
<g>
</g>
<g>
</g>
<g>
</g>
<g>
</g>
<g>
</g>
<g>
</g>
<g>
</g>
<g>
</g>
<g>
</g>
<g>
</g>
<g>
</g>
<g>
</g>
<g>
</g>
<g>
</g>
</svg>
