<svg height="512pt" viewBox="-19 0 512 512.001" width="512pt" xmlns="http://www.w3.org/2000/svg"><path d="m191.820312 295.597656c0 4.144532 3.355469 7.5 7.5 7.5h75.898438c4.144531 0 7.5-3.355468 7.5-7.5 0-4.140625-3.355469-7.5-7.5-7.5h-75.898438c-4.144531 0-7.5 3.359375-7.5 7.5zm0 0"/><path d="m255.820312 310.355469h-37.105468c-4.140625 0-7.5 3.359375-7.5 7.5s3.359375 7.5 7.5 7.5h37.105468c4.144532 0 7.5-3.359375 7.5-7.5s-3.355468-7.5-7.5-7.5zm0 0"/><path d="m462.035156 468.761719h-32.574218v-55.804688c10.863281-.773437 20.972656-5.351562 28.742187-13.121093 10.53125-10.527344 15.207031-25.566407 12.507813-40.21875-.414063-2.257813-1.488282-4.3125-3.128907-5.953126-1.621093-1.617187-3.671875-2.691406-5.921875-3.105468-2.707031-.496094-5.472656-.75-8.21875-.75-2.007812 0-3.988281.140625-5.945312.394531 1.140625-2.195313 2.085937-4.515625 2.796875-6.945313l7.996093-27.261718c.703126-2.394532.433594-4.921875-.761718-7.113282-1.199219-2.195312-3.179688-3.792968-5.578125-4.496093-.875-.253907-1.742188-.476563-2.609375-.675781l2.207031-10.996094c.984375-4.953125-2.242187-9.792969-7.199219-10.792969-2.703125-.539063-5.375-.816406-7.9375-.816406-.535156 0-1.058594.039062-1.582031.0625-1.34375-3.441407-3.152344-6.6875-5.367187-9.648438v-52.53125c-.003907 0-.003907 0-.007813 0 .003906-.042969.007813-.082031.007813-.121093v-42.640626c0-65.890624-47.488282-120.898437-110.046876-132.636718-.101562-11.605469-4.660156-22.496094-12.875-30.707032-8.304687-8.308593-19.351562-12.882812-31.105468-12.882812-11.75 0-22.796875 4.574219-31.105469 12.882812l-7.058594 7.054688-7.058593-7.054688c-8.308594-8.308593-19.355469-12.882812-31.109376-12.882812-11.75 0-22.796874 4.574219-31.101562 12.878906-8.21875 8.214844-12.777344 19.105469-12.878906 30.707032-62.558594 11.742187-110.042969 66.746093-110.042969 132.640624v95.726563c-1.90625 2.503906-3.511719 5.226563-4.792969 8.101563-.941406-.070313-1.890625-.109376-2.855468-.109376-2.015626 0-4.113282.164063-6.230469.484376-2.421875.371093-4.558594 1.660156-6.011719 3.632812-1.453125 1.976562-2.050781 4.398438-1.679688 6.824219l1.6875 11.074219c-.875.160156-1.757812.339843-2.648437.554687-5.003906 1.222656-8.082031 6.289063-6.863281 11.289063l6.710937 27.613281c.746094 3.0625 1.832031 5.960937 3.214844 8.667969-1.636719-.179688-3.289063-.277344-4.960937-.277344-2.75 0-5.515626.253906-8.21875.75-2.261719.417968-4.3125 1.492187-5.941407 3.121094-1.621093 1.625-2.695312 3.675781-3.109375 5.929687-2.703125 14.660156 1.972656 29.699219 12.503906 40.226563 7.878907 7.875 18.160157 12.480468 29.195313 13.15625v55.769531h-32.578125c-6.890625 0-12.5 5.605469-12.5 12.5v18.238281c0 6.894531 5.609375 12.5 12.5 12.5h449.535156c6.894532 0 12.5-5.605469 12.5-12.5v-18.238281c0-6.894531-5.605468-12.5-12.5-12.5zm-8.59375-103.953125c.957032 0 1.921875.046875 2.882813.136718.851562 8.953126-2.3125 17.871094-8.726563 24.28125-4.933594 4.933594-11.28125 7.949219-18.136718 8.679688v-21.304688c.785156-1.023437 1.636718-2.007812 2.5625-2.933593 5.714843-5.714844 13.320312-8.859375 21.417968-8.859375zm-11.285156-47.105469-6.257812 21.332031c-1.730469 5.902344-5.617188 10.773438-10.640626 13.878906-.585937-3.425781-1.476562-7.722656-2.8125-12.363281-.886718-3.082031-1.875-5.980469-2.960937-8.714843 2.894531-4.898438 6.1875-8.582032 9.859375-10.988282 3.871094-2.535156 8.035156-3.5625 12.8125-3.144531zm-16.691406-17.878906c2.960937-2.332031 6.269531-3.546875 10.097656-3.699219l-1.40625 7.015625c-4.621094.796875-8.992188 2.515625-13.027344 5.160156-1.378906.898438-2.710937 1.910157-3.996094 3.015625 2.273438-5.0625 5.058594-8.914062 8.332032-11.492187zm-5.164063-14.542969c-1.417969.808594-2.792969 1.71875-4.117187 2.757812-1.433594 1.132813-2.800782 2.394532-4.09375 3.78125-1.222656-1.441406-2.519532-2.769531-3.898438-3.964843-1.386718-1.203125-2.839844-2.257813-4.351562-3.1875 1.960937-3.734375 4.832031-6.976563 8.398437-9.382813 3.527344 2.621094 6.28125 6.082032 8.0625 9.996094zm-77.722656 158.21875c-4.144531 0-7.5 3.359375-7.5 7.5v17.761719h-90.308594v-109.011719h57.949219c6.890625 0 12.5-5.605469 12.5-12.5v-81.046875c0-6.894531-5.609375-12.5-12.5-12.5h-74.449219c-4.144531 0-7.5 3.359375-7.5 7.5s3.355469 7.5 7.5 7.5h71.949219v76.046875h-125.898438v-76.046875h18.949219c4.140625 0 7.5-3.359375 7.5-7.5s-3.359375-7.5-7.5-7.5h-21.449219c-6.894531 0-12.5 5.605469-12.5 12.5v81.046875c0 6.894531 5.605469 12.5 12.5 12.5h57.949219v109.011719h-90.308593v-179.261719c0-23.289062-9.015626-45.242188-25.378907-61.8125-2.292969-2.324219-4.695312-4.496094-7.195312-6.519531 50.226562-15.777344 87.65625-60.714844 92.339843-114.875l27.660157 27.648437c2.777343 2.769532 6.460937 4.292969 10.382812 4.292969 3.914063 0 7.601563-1.523437 10.386719-4.296875l27.652344-27.644531c4.683594 54.160156 42.113281 99.097656 92.34375 114.875-2.5 2.023437-4.90625 4.195312-7.199219 6.519531-16.363281 16.570312-25.375 38.523438-25.375 61.8125v125.5c0 4.140625 3.355469 7.5 7.5 7.5 4.140625 0 7.5-3.359375 7.5-7.5v-125.5c0-19.320312 7.476563-37.527344 21.050781-51.273438 4.917969-4.980468 10.441406-9.152343 16.394532-12.476562 2.21875.332031 4.449218.613281 6.699218.835938v45.390624c-1.898437 2.503907-3.511718 5.210938-4.792968 8.082032-.941407-.074219-1.890626-.113282-2.855469-.113282-2.015625 0-4.113281.164063-6.230469.484376-2.421875.371093-4.558594 1.660156-6.011719 3.632812-1.453125 1.976562-2.050781 4.398438-1.679687 6.824219l1.6875 11.074219c-.875.160156-1.757813.339843-2.644532.554687-5.007812 1.222656-8.085937 6.289063-6.867187 11.289063l6.710937 27.613281c.746094 3.0625 1.839844 5.960937 3.222657 8.667969-1.640625-.179688-3.296875-.277344-4.96875-.277344-2.75 0-5.515625.253906-8.21875.75-2.257813.417968-4.3125 1.492187-5.941407 3.121094-1.621093 1.625-2.695312 3.675781-3.109374 5.929687-2.699219 14.660156 1.972656 29.699219 12.503906 40.226563 7.878906 7.875 18.15625 12.480468 29.195312 13.15625v55.769531h-44.144531v-17.761719c0-4.140625-3.359375-7.5-7.5-7.5zm-262.375-122.652344c3.867187-2.535156 8.023437-3.5625 12.808594-3.148437l-6.257813 21.335937c-1.726562 5.898438-5.617187 10.773438-10.640625 13.878906-.585937-3.425781-1.476562-7.722656-2.808593-12.363281-.886719-3.082031-1.878907-5.980469-2.960938-8.714843 2.890625-4.902344 6.183594-8.582032 9.859375-10.988282zm-12.207031-9.542968c2.269531-5.054688 5.050781-8.902344 8.328125-11.480469 2.957031-2.332031 6.265625-3.546875 10.09375-3.699219l-1.40625 7.015625c-4.617188.796875-8.992188 2.515625-13.027344 5.160156-1.375.898438-2.703125 1.902344-3.988281 3.003907zm36.296875 53.503906c.960937 0 1.925781.046875 2.886719.136718.851562 8.953126-2.3125 17.871094-8.726563 24.28125-4.933594 4.933594-11.28125 7.949219-18.136719 8.679688v-21.308594c.789063-1.023437 1.636719-2.003906 2.5625-2.929687 5.714844-5.714844 13.324219-8.859375 21.414063-8.859375zm-23.976563 48.148437c10.867188-.773437 20.972656-5.355469 28.742188-13.121093 10.53125-10.527344 15.207031-25.566407 12.507812-40.21875-.410156-2.257813-1.488281-4.3125-3.125-5.953126-1.625-1.617187-3.675781-2.691406-5.925781-3.105468-2.707031-.496094-5.472656-.75-8.222656-.75-2.007813 0-3.992188.140625-5.949219.398437 1.140625-2.199219 2.09375-4.515625 2.804688-6.949219l7.992187-27.253906c.707031-2.398437.4375-4.925781-.757813-7.117187-1.195312-2.199219-3.175781-3.792969-5.578124-4.5-.875-.253907-1.742188-.472657-2.609376-.671875l2.207032-11c.984375-4.953125-2.242188-9.792969-7.199219-10.789063-2.703125-.542969-5.375-.816406-7.9375-.816406-.535156 0-1.054687.039063-1.582031.0625-1.34375-3.445313-3.148438-6.695313-5.367188-9.660156v-44.925781c2.257813-.222657 4.5-.503907 6.722656-.839844 5.945313 3.324218 11.457032 7.507812 16.371094 12.484375 13.574219 13.742187 21.050782 31.953125 21.050782 51.269531v179.261719h-44.144532zm318.050782-113.765625c1.871093 1.621094 3.539062 3.695313 5.019531 6.179688-.363281.8125-.714844 1.652344-1.054688 2.507812-.007812-.007812-.015625-.015625-.023437-.019531-3.914063-2.832031-8.199219-4.757813-12.773438-5.765625l-1.078125-7.070312c3.8125.335937 7.070313 1.707031 9.910157 4.167968zm-22.734376 90.035156c-6.414062-6.410156-9.578124-15.324218-8.726562-24.28125.960938-.089843 1.925781-.136718 2.886719-.136718 8.09375 0 15.695312 3.144531 21.410156 8.859375 1.105469 1.105469 2.109375 2.289062 3.015625 3.53125v20.753906c-7.023438-.644531-13.542969-3.683594-18.585938-8.726563zm10.484376-51.351562-5.253907-21.605469c4.773438-.191406 8.90625 1.03125 12.648438 3.742188 6.214843 4.496093 11.101562 12.804687 14.519531 24.6875 1.3125 4.5625 2.132812 8.738281 2.625 11.824219-.125-.003907-.25-.003907-.375-.003907l-.417969.003907c-11.3125 0-21.078125-7.667969-23.746093-18.648438zm23.101562 33.660156h5.242188v97.226563h-5.242188zm0-111.542968v-32.792969c1.742188-.027344 3.488281-.082031 5.242188-.175781v32.707031c-.613282-.125-1.230469-.214844-1.855469-.226563-.058594-.003906-.1875-.003906-.246094-.003906-1.066406 0-2.121094.179688-3.140625.492188zm3.859375-101.9375c-19.605469-7.265626-36.816406-19.578126-50.21875-36.066407-13.617187-16.757812-22.160156-36.5-25.085937-57.625 39.386718 15.289063 68.753906 50.785157 75.304687 93.691407zm-97.46875-96.136719c.511719-1.148438.980469-2.316407 1.394531-3.507813 1.714844.328125 3.417969.683594 5.109375 1.082032 2.261719 26.453124 12.257813 51.226562 29.105469 71.957031 16.59375 20.417969 38.363281 35.179687 63.21875 42.941406.011719.613281.023438 1.222656.023438 1.835937v9.007813c-26.039063-4.089844-49.949219-16.828125-68.011719-36.410156-20.050781-21.730469-31.09375-49.992188-31.09375-79.578125 0-2.4375.09375-4.882813.253906-7.328125zm19.8125 97.078125c20.90625 22.664062 48.761719 37.203125 79.039063 41.40625v11.605468c-2.40625.144532-4.800782.21875-7.175782.21875-64.78125 0-117.484375-52.679687-117.484375-117.433593 0-1.015625.023438-2.023438.046875-3.035157l11.019532-11.015624c2.515624 29.136718 14.554687 56.574218 34.554687 78.253906zm-156.820313-135.507813c5.476563-5.472656 12.757813-8.488281 20.5-8.488281 7.746094 0 15.027344 3.015625 20.503907 8.488281l12.359375 12.355469c2.929687 2.929688 7.675781 2.929688 10.605468 0l12.359376-12.355469c5.480468-5.472656 12.761718-8.488281 20.503906-8.488281 7.746094 0 15.023437 3.015625 20.5 8.492188 5.476562 5.46875 8.488281 12.746093 8.488281 20.484374 0 7.742188-3.011719 15.015626-8.488281 20.488282l-58.664063 58.644531-58.667969-58.640625c-5.472656-5.476562-8.488281-12.75-8.488281-20.488281 0-7.742188 3.015625-15.019531 8.488281-20.492188zm-41.839843 40.875c-2.921875 21.125-11.46875 40.867188-25.085938 57.625-13.398437 16.492188-30.609375 28.800781-50.214843 36.066407 6.550781-42.90625 35.917968-78.402344 75.300781-93.691407zm-76.683594 136.023438c23.789063-3.296875 46.105469-12.941407 64.90625-28.148438 3.222656-2.605469 3.722656-7.328125 1.113281-10.550781-2.601562-3.21875-7.324218-3.71875-10.546875-1.113281-16.121093 13.042969-35.164062 21.464843-55.472656 24.648437v-8.996094c0-.613281.011719-1.222656.019531-1.835937 24.855469-7.761719 46.625-22.523437 63.21875-42.945313 16.847656-20.726562 26.847656-45.5 29.105469-71.953124 1.691406-.398438 3.394531-.765626 5.109375-1.09375.414062 1.195312.882812 2.367187 1.394531 3.519531.152344 2.445312.253907 4.890625.253907 7.328125 0 23.898437-7.136719 46.894531-20.640626 66.5-2.351562 3.410156-1.488281 8.082031 1.921876 10.429687 1.300781.894531 2.78125 1.324219 4.246093 1.324219 2.386719 0 4.730469-1.132812 6.183594-3.246094 13.058594-18.953125 20.816406-40.714844 22.773437-63.515625l11.019532 11.019531c.027344 1.007813.046875 2.019532.046875 3.03125 0 64.753907-52.703125 117.4375-117.480469 117.4375-2.375 0-4.773438-.074218-7.175781-.222656v-11.617187zm0 26.636719c1.753906.09375 3.5.148437 5.238281.175781v32.53125c-.609375-.125-1.226562-.210938-1.851562-.226563-.058594 0-.191406-.003906-.25-.003906-1.066406 0-2.121094.179688-3.136719.492188zm3.019531 48.261718c3.523438 2.621094 6.277344 6.082032 8.0625 9.996094-1.417968.808594-2.796875 1.71875-4.117187 2.757812-1.4375 1.132813-2.800781 2.394532-4.09375 3.78125-1.226563-1.441406-2.523438-2.769531-3.902344-3.964843-1.386719-1.199219-2.839844-2.257813-4.347656-3.1875 1.960937-3.734375 4.828125-6.976563 8.398437-9.382813zm2.21875 96.25v97.226563h-5.238281v-97.226563zm-16.089844-72.34375c1.867188 1.621094 3.539063 3.695313 5.015626 6.175782-.363282.816406-.714844 1.65625-1.054688 2.511718-.007812-.007812-.015625-.011718-.023438-.019531-3.914062-2.832031-8.199218-4.753906-12.773437-5.765625l-1.078125-7.070312c3.8125.335937 7.070312 1.707031 9.914062 4.167968zm-4.855468 20.820313c6.214844 4.496093 11.097656 12.804687 14.519531 24.6875 1.3125 4.558593 2.128906 8.738281 2.621094 11.824219-.125-.003907-.25-.003907-.371094-.003907l-.421875.003907c-11.3125 0-21.074219-7.667969-23.746094-18.648438l-5.25-21.605469c4.773438-.191406 8.902344 1.03125 12.648438 3.742188zm-17.882813 69.214843c-6.414062-6.410156-9.578125-15.324218-8.722656-24.28125.957031-.089843 1.921875-.136718 2.882813-.136718 8.09375 0 15.699218 3.144531 21.414062 8.859375 1.105469 1.105469 2.105469 2.289062 3.015625 3.53125v20.753906c-7.027344-.644531-13.546875-3.683594-18.589844-8.726563zm433.046875 107.773438h-444.535156v-13.238281h444.535156zm0 0"/><path d="m231.964844 110.738281c1.464844 1.464844 3.386718 2.199219 5.304687 2.199219s3.839844-.734375 5.304688-2.199219l49.828125-49.808593c4.59375-4.59375 7.019531-10.457032 7.019531-16.949219 0-6.5-2.429687-12.363281-7.023437-16.957031-4.597657-4.59375-10.460938-7.023438-16.964844-7.023438-6.5 0-12.367188 2.429688-16.96875 7.023438l-12.359375 12.359374c-2.359375 2.359376-5.5 3.65625-8.835938 3.65625-3.339843 0-6.476562-1.296874-8.839843-3.65625l-12.359376-12.359374c-4.597656-4.59375-10.464843-7.023438-16.96875-7.023438-6.5 0-12.367187 2.429688-16.964843 7.027344-4.59375 4.59375-7.023438 10.453125-7.023438 16.953125 0 6.492187 2.429688 12.355469 7.023438 16.949219zm-39.222656-73.101562c1.75-1.75 3.890624-2.636719 6.359374-2.636719 2.476563 0 4.613282.886719 6.363282 2.632812l12.363281 12.359376c5.191406 5.1875 12.097656 8.046874 19.4375 8.046874 7.347656 0 14.25-2.859374 19.445313-8.050781l12.355468-12.355469c1.75-1.746093 3.894532-2.632812 6.367188-2.632812s4.609375.882812 6.355468 2.632812c1.746094 1.746094 2.632813 3.878907 2.632813 6.34375 0 2.464844-.886719 4.601563-2.628906 6.34375l-44.527344 44.511719-44.523437-44.511719c-1.746094-1.746093-2.628907-3.878906-2.628907-6.34375 0-2.464843.882813-4.597656 2.628907-6.339843zm0 0"/></svg>