<svg id="outline" height="512" viewBox="0 0 512 512" width="512" xmlns="http://www.w3.org/2000/svg"><path d="m68.4375 353.34375a36.88492 36.88492 0 0 0 -51.09375 10.21875 7.99921 7.99921 0 0 0 2.21875 11.09375l96 64a7.9968 7.9968 0 0 0 11.09375-2.21875 36.84367 36.84367 0 0 0 -10.21875-51.09375l-17.54956-11.69975 61.4397-98.73706a57.61464 57.61464 0 0 0 20.85986 3.91968 58.23684 58.23684 0 0 0 50.251-28.84473l24.5615-42.10518 24.56152 42.10522a58.01385 58.01385 0 0 0 71.1106 24.92493l61.43994 98.73714-17.54956 11.69975a36.84367 36.84367 0 0 0 -10.21875 51.09375 7.9968 7.9968 0 0 0 11.09375 2.21875l96-64a7.99921 7.99921 0 0 0 2.21875-11.09375 36.88632 36.88632 0 0 0 -51.09375-10.21875l-17.13159 11.42114-60.749-97.62695a58.114 58.114 0 0 0 15.24878-75.70483l-30.0205-51.46387a7.99914 7.99914 0 0 0 -10.74121-2.99219l-84.16898 45.9104-84.16895-45.9104a7.99919 7.99919 0 0 0 -10.74121 2.99219l-30.0205 51.46387a58.114 58.114 0 0 0 15.24878 75.70483l-60.749 97.62695zm384 13.3125a20.72324 20.72324 0 0 1 11.53027-3.49414 20.96813 20.96813 0 0 1 11.60938 3.50488l-80.04 53.36035a20.8931 20.8931 0 0 1 8.90039-21.37109zm-101.53223-108.99025a41.88909 41.88909 0 0 1 -56.52343-15.74561l-15.12012-25.92039h18.3164a39.5091 39.5091 0 0 1 21.98438 6.65625 55.45584 55.45584 0 0 0 30.85938 9.34375h20.88037l-.00147.00537a41.76216 41.76216 0 0 1 -20.39551 25.66063zm-9.89843-102.92041 26.10351 44.749a41.98458 41.98458 0 0 1 5.48804 16.50541h-22.17651a39.5091 39.5091 0 0 1 -21.98438-6.65625 55.45584 55.45584 0 0 0 -30.85938-9.34375h-27.6499l-2.86963-4.91943zm-170.01368 0 73.94825 40.335-2.86963 4.91941h-27.6499a55.45584 55.45584 0 0 0 -30.85938 9.34375 39.5091 39.5091 0 0 1 -21.98438 6.65625h-22.17651a41.98458 41.98458 0 0 1 5.488-16.50537zm-30.29541 77.25441h20.88037a55.45584 55.45584 0 0 0 30.85938-9.34375 39.5091 39.5091 0 0 1 21.98438-6.65625h18.3164l-15.12012 25.92041a42.09887 42.09887 0 0 1 -76.91894-9.915zm-24.2583 179.91211a20.78845 20.78845 0 0 1 .02344 8.11523l-80.041-53.36084a20.88026 20.88026 0 0 1 23.14062-.01025l48 32a20.7071 20.7071 0 0 1 8.87694 13.25586z"/><path d="m248 80h16v32h-16z"/><path d="m197.088 101.088h16v32h-16z" transform="matrix(.707 -.707 .707 .707 -22.728 179.304)"/><path d="m290.911 109.088h32v16h-32z" transform="matrix(.707 -.707 .707 .707 7.097 251.31)"/></svg>