<?xml version="1.0" encoding="iso-8859-1"?>
<!-- Generator: Adobe Illustrator 19.0.0, SVG Export Plug-In . SVG Version: 6.00 Build 0)  -->
<svg version="1.1" id="Capa_1" xmlns="http://www.w3.org/2000/svg" xmlns:xlink="http://www.w3.org/1999/xlink" x="0px" y="0px"
	 viewBox="0 0 512 512" style="enable-background:new 0 0 512 512;" xml:space="preserve">
<path style="fill:#656D78;" d="M503.514,2.829h-0.001H353.591c-18.76,0-33.945,15.174-33.945,33.945h-56.575h-25.459
	c-4.686,0-8.486,3.799-8.486,8.486v8.486v8.486c0,4.687,3.8,8.486,8.486,8.486h25.459h56.575c0,18.76,15.184,33.945,33.945,33.945
	h149.922h0.001c4.687,0,8.486-3.799,8.486-8.486v-0.003V11.315C512,6.628,508.201,2.829,503.514,2.829z"/>
<g>
	<path style="fill:#ED5565;" d="M121.635,379.05H8.486c-4.687,0-8.486,3.799-8.486,8.486c0,35.875,29.186,65.061,65.061,65.061
		s65.061-29.186,65.061-65.061C130.122,382.849,126.323,379.05,121.635,379.05z"/>
	<path style="fill:#ED5565;" d="M251.757,379.05H138.608c-4.687,0-8.486,3.799-8.486,8.486c0,35.875,29.186,65.061,65.061,65.061
		s65.061-29.186,65.061-65.061C260.243,382.849,256.444,379.05,251.757,379.05z"/>
	<path style="fill:#ED5565;" d="M381.878,379.05H268.729c-4.687,0-8.486,3.799-8.486,8.486c0,35.875,29.186,65.061,65.061,65.061
		s65.061-29.186,65.061-65.061C390.365,382.849,386.566,379.05,381.878,379.05z"/>
</g>
<g>
	<path style="fill:#E6E9ED;" d="M87.691,492.199H73.547v-40.173c-2.78,0.364-5.609,0.571-8.486,0.571s-5.706-0.208-8.486-0.571
		v40.173H42.431c-4.687,0-8.486,3.799-8.486,8.486s3.799,8.486,8.486,8.486h45.26c4.687,0,8.486-3.799,8.486-8.486
		S92.378,492.199,87.691,492.199z"/>
	<path style="fill:#E6E9ED;" d="M217.812,492.199h-14.144v-40.173c-2.78,0.364-5.609,0.571-8.486,0.571s-5.706-0.208-8.486-0.571
		v40.173h-14.144c-4.687,0-8.486,3.799-8.486,8.486s3.799,8.486,8.486,8.486h45.26c4.687,0,8.486-3.799,8.486-8.486
		S222.499,492.199,217.812,492.199z"/>
	<path style="fill:#E6E9ED;" d="M347.934,492.199H333.79v-40.173c-2.78,0.364-5.609,0.571-8.486,0.571s-5.706-0.208-8.486-0.571
		v40.173h-14.144c-4.687,0-8.486,3.799-8.486,8.486s3.799,8.486,8.486,8.486h45.26c4.687,0,8.486-3.799,8.486-8.486
		S352.621,492.199,347.934,492.199z"/>
</g>
<g>
	<path style="fill:#ED5565;" d="M186.696,265.901H73.547c-4.687,0-8.486,3.799-8.486,8.486c0,35.875,29.186,65.061,65.061,65.061
		s65.061-29.186,65.061-65.061C195.182,269.699,191.383,265.901,186.696,265.901z"/>
	<path style="fill:#ED5565;" d="M251.757,152.751H138.608c-4.687,0-8.486,3.799-8.486,8.486c0,35.875,29.186,65.061,65.061,65.061
		s65.061-29.186,65.061-65.061C260.243,156.55,256.444,152.751,251.757,152.751z"/>
	<path style="fill:#ED5565;" d="M316.818,265.901H203.669c-4.687,0-8.486,3.799-8.486,8.486c0,35.875,29.186,65.061,65.061,65.061
		s65.061-29.186,65.061-65.061C325.304,269.699,321.505,265.901,316.818,265.901z"/>
</g>
<g>
	<path style="fill:#E6E9ED;" d="M203.669,265.901v-40.173c-2.78,0.364-5.609,0.571-8.486,0.571s-5.706-0.208-8.486-0.571v40.173
		c4.687,0,8.486,3.799,8.486,8.486C195.182,269.699,198.981,265.901,203.669,265.901z"/>
	<path style="fill:#E6E9ED;" d="M195.182,274.387c0,2.869-0.207,5.686-0.568,8.457c0.189,0.013,0.376,0.029,0.568,0.029
		c0.192,0,0.379-0.016,0.568-0.029C195.389,280.073,195.182,277.255,195.182,274.387z"/>
	<path style="fill:#E6E9ED;" d="M138.608,379.05v-40.173c-2.78,0.364-5.609,0.571-8.486,0.571s-5.706-0.208-8.486-0.571v40.173
		c4.687,0,8.486,3.799,8.486,8.486C130.122,382.849,133.92,379.05,138.608,379.05z"/>
	<path style="fill:#E6E9ED;" d="M130.122,387.536c0,2.869-0.207,5.686-0.568,8.457c0.189,0.013,0.376,0.029,0.568,0.029
		c0.192,0,0.379-0.016,0.568-0.029C130.328,393.222,130.122,390.404,130.122,387.536z"/>
	<path style="fill:#E6E9ED;" d="M268.729,379.05v-40.173c-2.78,0.364-5.609,0.571-8.486,0.571s-5.706-0.208-8.486-0.571v40.173
		c4.687,0,8.486,3.799,8.486,8.486C260.243,382.849,264.042,379.05,268.729,379.05z"/>
	<path style="fill:#E6E9ED;" d="M260.243,387.536c0,2.869-0.207,5.686-0.568,8.457c0.189,0.013,0.376,0.029,0.568,0.029
		s0.379-0.016,0.568-0.029C260.45,393.222,260.243,390.404,260.243,387.536z"/>
</g>
<g>
	<path style="fill:#DA4453;" d="M251.757,152.751h-33.948c4.687,0,8.486,3.799,8.486,8.486c0,30.003-20.419,55.314-48.087,62.8
		c5.416,1.465,11.103,2.261,16.975,2.261c35.875,0,65.061-29.186,65.061-65.061C260.243,156.55,256.444,152.751,251.757,152.751z"/>
	<path style="fill:#DA4453;" d="M316.818,265.901H282.87c4.687,0,8.486,3.799,8.486,8.486c0,30.003-20.419,55.314-48.087,62.8
		c5.416,1.465,11.103,2.261,16.975,2.261c35.875,0,65.061-29.186,65.061-65.061C325.304,269.699,321.505,265.901,316.818,265.901z"
		/>
	<path style="fill:#DA4453;" d="M251.757,379.05h-33.948c4.687,0,8.486,3.799,8.486,8.486c0,30.003-20.419,55.314-48.087,62.8
		c5.416,1.465,11.103,2.261,16.975,2.261c35.875,0,65.061-29.186,65.061-65.061C260.243,382.849,256.444,379.05,251.757,379.05z"/>
	<path style="fill:#DA4453;" d="M381.878,379.05H347.93c4.687,0,8.486,3.799,8.486,8.486c0,30.003-20.419,55.314-48.087,62.8
		c5.416,1.465,11.103,2.261,16.975,2.261c35.875,0,65.061-29.186,65.061-65.061C390.365,382.849,386.566,379.05,381.878,379.05z"/>
	<path style="fill:#DA4453;" d="M186.696,265.901h-33.948c4.687,0,8.486,3.799,8.486,8.486c0,30.003-20.419,55.314-48.087,62.8
		c5.416,1.465,11.103,2.261,16.975,2.261c35.875,0,65.061-29.186,65.061-65.061C195.182,269.699,191.383,265.901,186.696,265.901z"
		/>
	<path style="fill:#DA4453;" d="M121.635,379.05H87.687c4.687,0,8.486,3.799,8.486,8.486c0,30.003-20.419,55.314-48.087,62.8
		c5.416,1.465,11.103,2.261,16.975,2.261c35.875,0,65.061-29.186,65.061-65.061C130.122,382.849,126.323,379.05,121.635,379.05z"/>
</g>
<path style="fill:#515760;" d="M319.646,36.771v0.002h-56.095h-0.48h-25.459c-4.686,0-8.486,3.799-8.486,8.486v8.486v8.486
	c0,4.687,3.8,8.486,8.486,8.486h25.459h56.575c0,18.76,15.184,33.945,33.945,33.945h149.922h0.001c4.687,0,8.486-3.799,8.486-8.486
	v-0.003V70.715H364.907C341.524,70.715,336.148,36.771,319.646,36.771z"/>
<path style="fill:#DA4453;" d="M203.669,87.691c0-14.038,11.421-25.459,25.459-25.459v-8.486V45.26
	c-23.397,0-42.431,19.034-42.431,42.431v65.061h16.972V87.691z"/>
<rect x="376.22" y="2.829" style="fill:#E6E9ED;" width="79.2" height="101.83"/>
<rect x="376.22" y="70.72" style="fill:#CCD1D9;" width="79.2" height="33.946"/>
<g>
</g>
<g>
</g>
<g>
</g>
<g>
</g>
<g>
</g>
<g>
</g>
<g>
</g>
<g>
</g>
<g>
</g>
<g>
</g>
<g>
</g>
<g>
</g>
<g>
</g>
<g>
</g>
<g>
</g>
</svg>
