<?xml version="1.0"?>
<svg xmlns="http://www.w3.org/2000/svg" viewBox="0 0 512 512" width="512" height="512"><g id="outline"><path d="M456,128H438.989a55.56,55.56,0,0,0-43.6,20.954L392,153.193V119.321A48.069,48.069,0,0,0,432,72V48a8,8,0,0,0-12.438-6.656L402.219,52.906,390.656,35.562a8,8,0,0,0-13.312,0L365.781,52.906,348.438,41.344A8,8,0,0,0,336,48V72a48.069,48.069,0,0,0,40,47.321v33.872l-3.395-4.243a55.55,55.55,0,0,0-40.142-20.838l2.4-4A8,8,0,0,0,328,112H310.989a55.56,55.56,0,0,0-43.6,20.954L264,137.193V103.321A48.069,48.069,0,0,0,304,56V32a8,8,0,0,0-12.438-6.656L274.219,36.906,262.656,19.562a8,8,0,0,0-13.312,0L237.781,36.906,220.438,25.344A8,8,0,0,0,208,32V56a48.069,48.069,0,0,0,40,47.321v33.873l-3.392-4.239A55.558,55.558,0,0,0,201.011,112H184a8,8,0,0,0-6.86,12.116l2.4,4a55.551,55.551,0,0,0-40.144,20.841L136,153.194V119.321A48.069,48.069,0,0,0,176,72V48a8,8,0,0,0-12.438-6.656L146.219,52.906,134.656,35.562a8,8,0,0,0-13.312,0L109.781,52.906,92.438,41.344A8,8,0,0,0,80,48V72a48.069,48.069,0,0,0,40,47.321v33.873l-3.392-4.239A55.558,55.558,0,0,0,73.011,128H56a8,8,0,0,0-6.86,12.116l10.066,16.778A56.117,56.117,0,0,0,107.082,184H120v16H80a24,24,0,0,0,0,48h.289A112.2,112.2,0,0,0,176,350.852V360a24.028,24.028,0,0,0,24,24h4l.134.178A49.577,49.577,0,0,1,210.793,432H208a32.036,32.036,0,0,0-32,32v24a8,8,0,0,0,8,8H328a8,8,0,0,0,8-8V464a32.036,32.036,0,0,0-32-32h-2.793a49.577,49.577,0,0,1,6.658-47.821L308,384h4a24.028,24.028,0,0,0,24-24v-9.148A112.2,112.2,0,0,0,431.711,248H432a24,24,0,0,0,0-48H392V184h12.918a56.117,56.117,0,0,0,47.876-27.106l10.066-16.778A8,8,0,0,0,456,128ZM107.082,168a40.031,40.031,0,0,1-34.155-19.339L70.13,144h2.881a39.635,39.635,0,0,1,31.1,14.95l7.24,9.05ZM352,72V62.948l11.562,7.708a8,8,0,0,0,11.094-2.218L384,54.422l9.344,14.016a8,8,0,0,0,11.094,2.218L416,62.948V72a32,32,0,0,1-64,0Zm8.113,86.947L367.355,168H363.08a40.025,40.025,0,0,1-34.15-19.337l-2.8-4.663h2.879A39.657,39.657,0,0,1,360.113,158.947Zm-80.227-16A39.637,39.637,0,0,1,310.989,128h2.881l-2.318,3.864-.009.014-.47.783A40.031,40.031,0,0,1,276.918,152h-4.272ZM224,56V46.948l11.562,7.708a8,8,0,0,0,11.094-2.218L256,38.422l9.344,14.016a8,8,0,0,0,11.094,2.218L288,46.948V56a32,32,0,0,1-64,0Zm-22.989,72a39.635,39.635,0,0,1,31.1,14.95l7.24,9.05h-4.272a40.031,40.031,0,0,1-34.155-19.339l-.469-.782-.01-.016L198.13,128Zm-49.126,30.95A39.658,39.658,0,0,1,182.99,144h2.879l-2.8,4.664A40.024,40.024,0,0,1,148.92,168h-4.275ZM96,72V62.948l11.562,7.708a8,8,0,0,0,11.094-2.218L128,54.422l9.344,14.016a8,8,0,0,0,11.094,2.218L160,62.948V72a32,32,0,0,1-64,0Zm40,112h12.92a56.107,56.107,0,0,0,47.869-27.1l1.611-2.684A56.1,56.1,0,0,0,235.082,168H248v32H136ZM96.33,248h39.986A107.51,107.51,0,0,0,187.9,331.672L195.117,336H192A96.133,96.133,0,0,1,96.33,248Zm263.3,0a91.421,91.421,0,0,1-43.768,69.951L285.783,336H271.546l3.064-4.29A156.8,156.8,0,0,0,303.794,248Zm-98.041,74.409L256,330.236l-5.591-7.827A140.868,140.868,0,0,1,224.248,248h63.5A140.868,140.868,0,0,1,261.591,322.409ZM208.206,248a156.8,156.8,0,0,0,29.184,83.71l3.064,4.29H226.217l-30.081-18.049A91.421,91.421,0,0,1,152.368,248ZM320,464v16H192V464a16.019,16.019,0,0,1,16-16h96A16.019,16.019,0,0,1,320,464Zm-35.659-32H227.659a65.335,65.335,0,0,0-4.81-48h66.3A65.334,65.334,0,0,0,284.341,432ZM320,360a8.009,8.009,0,0,1-8,8H200a8.009,8.009,0,0,1-8-8v-8H320Zm0-24h-3.117l7.214-4.328A107.51,107.51,0,0,0,375.684,248H415.67A96.133,96.133,0,0,1,320,336ZM440,224a8.009,8.009,0,0,1-8,8H80a8,8,0,0,1,0-16H432A8.009,8.009,0,0,1,440,224ZM264,200V168h12.918A56.1,56.1,0,0,0,313.6,154.213l1.61,2.683A56.109,56.109,0,0,0,363.08,184H376v16Zm175.073-51.339A40.031,40.031,0,0,1,404.918,168h-4.272l7.24-9.051A39.637,39.637,0,0,1,438.989,144h2.881Z"/></g></svg>
