<svg height="512" viewBox="0 0 512 512" width="512" xmlns="http://www.w3.org/2000/svg"><path d="m304 376-2.53 3.38c-1.12 1.5-2.17 3.04-3.13 4.62a57.858 57.858 0 0 0 -2.34 56l-16 8h-48l-16-8a57.887 57.887 0 0 0 -2.34-56c-.96-1.58-2.01-3.12-3.13-4.62l-2.53-3.38v-8h96z" fill="#c3c3c3"/><path d="m328 344v16a16 16 0 0 1 -16 16h-112a16 16 0 0 1 -16-16v-16z" fill="#dbdbdb"/><path d="m424 240a104 104 0 0 1 -104 104h-128a103.329 103.329 0 0 1 -27.65-3.73h-.01a104.1 104.1 0 0 1 -74.89-82.88l-.01-.05a104.31 104.31 0 0 1 -1.44-17.34z" fill="#cbcbcb"/><path d="m328 336v15.7q-3.96.3-8 .3h-128q-4.035 0-8-.3v-15.7z" fill="#cdcdcd"/><g fill="#e4e4e2"><path d="m224 344h-32a103.329 103.329 0 0 1 -27.65-3.73h-.01a104.1 104.1 0 0 1 -74.89-82.88l-.01-.05-1.44-17.34h56a98.9 98.9 0 0 0 48.02 84.81z"/><path d="m424 240a104 104 0 0 1 -104 104h-32l31.98-19.19a98.9 98.9 0 0 0 48.02-84.81z"/><path d="m256 344 12.1-16.941a149.782 149.782 0 0 0 27.9-87.059h-80a149.782 149.782 0 0 0 27.9 87.059z"/></g><path d="m328 488h-144v-24a24 24 0 0 1 24-24h96a24 24 0 0 1 24 24z" fill="#dbdbdb"/><path d="m384 216a8 8 0 0 1 -8-8v-104a8 8 0 0 1 16 0v104a8 8 0 0 1 -8 8z" fill="#5e8569"/><path d="m312 136h17.011a47.83 47.83 0 0 1 37.35 17.952l17.639 22.048h-20.918a47.833 47.833 0 0 1 -41.016-23.223z" fill="#6b9777"/><path d="m456 136h-17.011a47.83 47.83 0 0 0 -37.35 17.952l-17.639 22.048h20.918a47.833 47.833 0 0 0 41.016-23.223z" fill="#6b9777"/><path d="m128 216a8 8 0 0 1 -8-8v-104a8 8 0 0 1 16 0v104a8 8 0 0 1 -8 8z" fill="#5e8569"/><path d="m56 136h17.011a47.83 47.83 0 0 1 37.35 17.952l17.639 22.048h-20.918a47.833 47.833 0 0 1 -41.016-23.223z" fill="#6b9777"/><path d="m200 136h-17.011a47.83 47.83 0 0 0 -37.35 17.952l-17.639 22.048h20.918a47.833 47.833 0 0 0 41.016-23.223z" fill="#6b9777"/><path d="m256 216a8 8 0 0 1 -8-8v-120a8 8 0 0 1 16 0v120a8 8 0 0 1 -8 8z" fill="#5e8569"/><path d="m184 120h17.011a47.83 47.83 0 0 1 37.35 17.952l17.639 22.048h-20.918a47.833 47.833 0 0 1 -41.016-23.223z" fill="#85bc94"/><path d="m328 120h-17.011a47.83 47.83 0 0 0 -37.35 17.952l-17.639 22.048h20.918a47.833 47.833 0 0 0 41.016-23.223z" fill="#85bc94"/><path d="m384 112a40 40 0 0 1 -40-40v-24l24 16 16-24 16 24 24-16v24a40 40 0 0 1 -40 40z" fill="#ffb1b5"/><path d="m128 112a40 40 0 0 1 -40-40v-24l24 16 16-24 16 24 24-16v24a40 40 0 0 1 -40 40z" fill="#d970a2"/><path d="m256 96a40 40 0 0 1 -40-40v-24l24 16 16-24 16 24 24-16v24a40 40 0 0 1 -40 40z" fill="#f55648"/><rect fill="#eaeae8" height="32" rx="16" width="384" x="64" y="208"/><path d="m304 376-2.53 3.38c-1.12 1.5-2.17 3.04-3.13 4.62h-84.68c-.96-1.58-2.01-3.12-3.13-4.62l-2.53-3.38z" fill="#a8a8a8"/></svg>