<svg height="512" viewBox="0 0 58 58" width="512" xmlns="http://www.w3.org/2000/svg"><g id="Page-1" fill="none" fill-rule="evenodd"><g id="025---Present" fill-rule="nonzero" transform="translate(0 -1)"><path id="Shape" d="m55.311 10.761c-1.4232301-1.4198336-3.4629544-2.03253929-5.433-1.632.080014-.39400456.1208795-.7949545.122-1.197.0001273-2.71578119-1.8239397-5.09302002-4.4471963-5.79586586s-5.3915206.44397551-6.7492112 2.79602648-.9662297 5.32278208.9544075 7.24283938c.2510745.2599566.6228779.3642126.9725073.2726972.3496295-.0915155.6226744-.3645604.7141899-.7141899.0915154-.3496294-.0127406-.7214328-.2726972-.9725073-1.1442425-1.14389695-1.4866869-2.86446303-.8676337-4.3593089.6190532-1.49484586 2.0776748-2.46954529 3.6956337-2.46954529s3.0765805.97469943 3.6956337 2.46954529c.6190532 1.49484587.2766088 3.21541195-.8676337 4.3593089l-3.538 3.539c-.3397768.3967603-.3169323.9881942.0524368 1.3575632.369369.3693691.9608029.3922136 1.3575632.0524368l3.535-3.535c1.5621184-1.5620379 4.0947409-1.5619944 5.6568057.0000972 1.5620647 1.5620916 1.5620647 4.094714 0 5.6568056-1.5620648 1.5620916-4.0946873 1.5621351-5.6568057.0000972-.2510745-.2599566-.6228779-.3642126-.9725073-.2726972-.3496295.0915155-.6226744.3645604-.7141899.7141899-.0915154.3496294.0127406.7214328.2726972.9725073 2.3430681 2.3433441 6.1421558 2.3435679 8.4854999.0004999 2.3433442-2.343068 2.3435681-6.1421557.0005001-8.4854999z" fill="#894b9d"/><rect id="Rectangle-path" fill="#f0c419" height="8" rx="2" transform="matrix(.707 .707 -.707 .707 24.381 -24.577)" width="40" x="21.858" y="13.142"/><rect id="Rectangle-path" fill="#f0c419" height="25" rx="2" width="38" x="10" y="34"/><path id="Rectangle-path" d="m25 34h8v25h-8z" fill="#955ba5"/><path id="Rectangle-path" d="m36.858 13.142h10v8h-10z" fill="#955ba5" transform="matrix(.707 .707 -.707 .707 24.381 -24.577)"/><path id="Shape" d="m14 41c-.5522847 0-1-.4477153-1-1v-2c0-.5522847.4477153-1 1-1s1 .4477153 1 1v2c0 .5522847-.4477153 1-1 1z" fill="#f3d55b"/><path id="Shape" d="m14 56c-.5522847 0-1-.4477153-1-1v-11c0-.5522847.4477153-1 1-1s1 .4477153 1 1v11c0 .5522847-.4477153 1-1 1z" fill="#f3d55b"/><g fill="#ff5364"><path id="Shape" d="m11 6c-1.23767737-1.83348997-3.28838692-2.95205882-5.5-3-3.256 0-5.5 3-5.5 6.515 0 4.285 3.427 8.55 10.656 13.385.208297.1389148.479703.1389148.688 0 7.229-4.835 10.656-9.1 10.656-13.385 0-3.515-2.244-6.515-5.5-6.515-2.2116131.04794118-4.2623226 1.16651003-5.5 3z"/><path id="Shape" d="m31.322 20.678c.2677831-1.5697094-.2313969-3.1728096-1.343-4.313-1.675-1.675-4.314-1.344-6.054.4-2.122 2.123-2.469 5.994-1.143 12.1.0396642.1765008.1774992.3143358.354.354 6.109 1.326 9.98.979 12.1-1.143 1.74-1.74 2.071-4.379.4-6.054-1.1402263-1.1122757-2.7438011-1.6118595-4.314-1.344z"/></g></g></g></svg>