<svg height="512" viewBox="0 0 60 60" width="512" xmlns="http://www.w3.org/2000/svg"><g id="Page-1" fill="none" fill-rule="evenodd"><g id="025---Present" fill="rgb(0,0,0)" fill-rule="nonzero"><path id="Shape" d="m34 33h-21c-1.6568542 0-3 1.3431458-3 3v21c0 1.6568542 1.3431458 3 3 3h34c1.6568542 0 3-1.3431458 3-3v-21c0-1.6568542-1.3431458-3-3-3zm-22 24v-21c0-.5522847.4477153-1 1-1h12v23h-12c-.5522847 0-1-.4477153-1-1zm15 1v-23h6v23zm21-22v21c0 .5522847-.4477153 1-1 1h-12v-23h12c.5522847 0 1 .4477153 1 1z"/><path id="Shape" d="m49.929 3c-1.6694092-1.68375794-4.1765911-2.22085873-6.389249-1.36873621-2.212658.85212252-3.7119449 2.9321651-3.820751 5.30073621l-6.053-6.053c-.5626237-.56271905-1.3257625-.87885933-2.1215-.87885933s-1.5588763.31614028-2.1215.87885933l-2.823 2.828c-.562719.56262374-.8788593 1.32576248-.8788593 2.1215s.3161403 1.55887626.8788593 2.1215l9.192 9.192 7.071 7.071 9.192 9.191c1.1714996 1.1711458 3.0705004 1.1711458 4.242 0l2.828-2.828c.562719-.5626237.8788593-1.3257625.8788593-2.1215s-.3161403-1.5588763-.8788593-2.1215l-6.054-6.053c2.2458975-.1103654 4.2404978-1.4700662 5.1640258-3.5202691.9235279-2.050203.6201805-4.4450302-.7853675-6.2002142-1.4055479-1.75518399-3.6761744-2.57461794-5.8786583-2.1215167.3997587-1.97335288-.2169137-4.01565772-1.642-5.438zm-7.071 1.414c1.0105257-1.01052577 2.4833991-1.40518103 3.8638029-1.03530295s2.458622 1.44809621 2.8285 2.82850005c.3698781 1.38040384-.0247771 2.85327719-1.0353029 3.8638029l-2.829 2.829-2.828-2.829c-.7501901-.75015144-1.1716458-1.76759833-1.1716458-2.8285s.4214557-2.07834856 1.1716458-2.8285zm-4.95 12.021 4.243-4.243 5.657 5.657-4.243 4.243zm-9.9-11.314 2.828-2.828c.3904999-.39038194 1.0235001-.39038194 1.414 0l8.486 8.485-4.243 4.243-8.484-8.485c-.187777-.18756826-.2932867-.44209075-.2932867-.7075s.1055097-.51993174.2932867-.7075zm29.7 24.042-2.828 2.828c-.3951446.3780366-1.0178554.3780366-1.413 0l-8.486-8.485 4.243-4.243 8.485 8.486c.3898302.3910518.3889348 1.0240525-.002 1.414zm-2.122-17.678c1.5621374 1.5621374 1.5621374 4.0948626 0 5.657s-4.0948626 1.5621374-5.657 0l-2.829-2.828 2.829-2.829c1.5634816-1.5588888 4.0935184-1.5588888 5.657 0z"/><path id="Shape" d="m15 37c-.5522847 0-1 .4477153-1 1v2c0 .5522847.4477153 1 1 1s1-.4477153 1-1v-2c0-.5522847-.4477153-1-1-1z"/><path id="Shape" d="m15 43c-.5522847 0-1 .4477153-1 1v11c0 .5522847.4477153 1 1 1s1-.4477153 1-1v-11c0-.5522847-.4477153-1-1-1z"/><path id="Shape" d="m17.5 2c-2.0879328.01204253-4.0781758.88594013-5.5 2.415-1.4218242-1.52905987-3.41206723-2.40295747-5.5-2.415-3.645 0-6.5 3.3-6.5 7.515 0 4.635 3.527 9.151 11.1 14.212.5444625.3650889 1.2555375.3650889 1.8 0 7.573-5.061 11.1-9.577 11.1-14.212 0-4.215-2.855-7.515-6.5-7.515zm-5.5 19.922c-6.821-4.595-10-8.541-10-12.407 0-3.144 1.935-5.515 4.5-5.515 1.86812387.03825453 3.6016224.98030848 4.65 2.527.1948348.27636168.5118634.44075047.85.44075047s.6551652-.16438879.85-.44075047c1.051489-1.5432554 2.7830667-2.48426544 4.65-2.527 2.565 0 4.5 2.371 4.5 5.515 0 3.865-3.179 7.812-10 12.407z"/><path id="Shape" d="m22.805 29.077c.1212054.5610003.5584358.9997936 1.119 1.123 2.0926256.4902333 4.2311216.7583833 6.38.8 3 0 5.161-.733 6.642-2.214 1.0043483-.9781216 1.6305761-2.2798111 1.768-3.675.1338405-1.4060089-.3696582-2.7979698-1.372-3.793-1.0529509-1.0508116-2.4679785-1.6590409-3.955-1.7-.0409591-1.4870215-.6491884-2.9020491-1.7-3.955-.9954204-1.0017302-2.3870824-1.5051208-3.793-1.372-1.3951889.1374239-2.6968784.7636517-3.675 1.768-2.378 2.372-2.827 6.51-1.414 13.018zm5.255-12.8c.8190521-.0840631 1.6320804.2075386 2.211.793.8776081.8984477 1.2759135 2.1605524 1.073 3.4-.0708446.3325227.0321114.6782607.273325.9178568.2412136.239596.5876365.3402235.919675.2671432 1.2368534-.1997301 2.4951192.1991598 3.391 1.075.5852108.5790793.8767681 1.3919838.793 2.211-.0983246.924017-.5193461 1.7837649-1.189 2.428-1.788 1.788-5.338 2.1-10.845.945-1.153-5.507-.843-9.056.945-10.845.6440845-.670022 1.5038498-1.0914062 2.428-1.19z"/></g></g></svg>