<?xml version="1.0" encoding="utf-8"?>
<!-- Generator: Adobe Illustrator 16.0.0, SVG Export Plug-In . SVG Version: 6.00 Build 0)  -->
<!DOCTYPE svg PUBLIC "-//W3C//DTD SVG 1.1//EN" "http://www.w3.org/Graphics/SVG/1.1/DTD/svg11.dtd">
<svg version="1.1" id="Layer_1" xmlns="http://www.w3.org/2000/svg" xmlns:xlink="http://www.w3.org/1999/xlink" x="0px" y="0px"
	 width="1024px" height="768px" viewBox="0 0 1024 768" enable-background="new 0 0 1024 768" xml:space="preserve">
<g>
	<path fill="#E2574C" d="M195.262,139.847C309.24,24.07,421.417,75.061,512,157.244C601.982,75.06,714.16,23.47,828.738,139.847
		c89.383,90.583,89.981,236.353,0,326.935C678.168,604.757,599.584,676.141,558.19,713.935c-25.794,23.396-64.786,23.396-90.582,0
		c-41.393-37.192-120.577-109.179-272.347-247.152C105.279,376.802,105.879,231.03,195.262,139.847z"/>
	<path fill="#D65348" d="M512,157.244v574.688c16.197,0,32.994-5.998,46.19-17.396c41.392-37.793,119.977-109.179,270.548-247.151
		c89.981-90.583,89.383-236.354,0-326.937C714.16,23.47,601.982,75.061,512,157.244z"/>
	<path fill="#E67067" d="M212.059,296.417c0-77.385,62.988-140.373,140.373-140.373c8.999,0,15.598,7.198,15.598,15.598
		c0,8.999-7.198,15.597-15.598,15.597c-59.989,0-108.579,48.591-108.579,108.579c0,8.999-7.198,15.597-15.597,15.597
		C219.257,312.014,212.059,304.815,212.059,296.417z"/>
</g>
</svg>
